<?xml version="1.0" encoding="UTF-8"?>
<svg id="Layer_1" data-name="Layer 1" xmlns="http://www.w3.org/2000/svg" viewBox="0 0 799.8 236.64">
  <defs>
    <style>
      .cls-1 {
        fill: #eaff34;
      }

      .cls-1, .cls-2 {
        stroke-width: 0px;
      }

      .cls-2 {
        fill: #121429;
      }
    </style>
  </defs>
  <g>
    <path class="cls-2" d="m39.61,185.07c-9.1,0-15.69-3.1-19.75-9.31-4.06-6.21-6.09-16.61-6.09-31.2s2.75-25.37,8.24-31.43c5.49-6.05,14.97-9.08,28.44-9.08,8.73,0,15.76.56,21.1,1.69,4.36.9,6.32,3.69,5.87,8.35l-.45,3.84c-.45,4.74-3.01,7.04-7.67,6.88-1.73,0-4.61-.02-8.63-.06-4.03-.04-7.39-.06-10.1-.06-4.36,0-7.3,1.32-8.8,3.95-1.51,2.63-2.26,7.94-2.26,15.91s.68,13.05,2.03,15.69c1.35,2.63,3.99,3.95,7.9,3.95,2.41,0,4.55-.11,6.43-.34,1.35-.23,2.03-1.05,2.03-2.48v-15.35c0-4.89,2.44-7.33,7.33-7.33h8.8c4.89,0,7.33,2.45,7.33,7.33v30.13c0,4.89-2.45,7.33-7.33,7.33h-4.18c-3.84,0-6.43-1.65-7.79-4.96l-.45-1.35c-.23-.98-1.09-.79-2.6.56-5.34,4.89-11.81,7.33-19.41,7.33Z"/>
    <path class="cls-2" d="m125.38,185.07c-9.18,0-16.31-1.15-21.38-3.44-5.08-2.29-8.82-6.36-11.23-12.19-2.41-5.83-3.61-14.12-3.61-24.88s1.2-19.05,3.61-24.88c2.41-5.83,6.15-9.89,11.23-12.19,5.08-2.29,12.2-3.44,21.38-3.44s16.42,1.15,21.5,3.44c5.08,2.29,8.82,6.36,11.23,12.19,2.41,5.83,3.61,14.12,3.61,24.88s-1.2,19.05-3.61,24.88c-2.41,5.83-6.15,9.89-11.23,12.19-5.08,2.29-12.24,3.44-21.5,3.44Zm-8.41-22.63c1.39,2.97,4.19,4.46,8.41,4.46s7.01-1.48,8.41-4.46c1.39-2.97,2.09-8.93,2.09-17.89s-.7-14.91-2.09-17.89c-1.39-2.97-4.19-4.46-8.41-4.46s-7.02,1.49-8.41,4.46c-1.39,2.97-2.09,8.93-2.09,17.89s.69,14.92,2.09,17.89Z"/>
    <path class="cls-2" d="m178.52,183.49c-4.89,0-7.33-2.44-7.33-7.33v-63.53c0-4.66,2.33-7.18,7-7.56,6.02-.38,14.71-.56,26.07-.56s20.14,1.73,25.22,5.19c5.08,3.46,7.62,9.63,7.62,18.51,0,9.86-4.59,15.87-13.77,18.06-.45.08-.79.23-1.02.45s-.25.45-.06.68c.19.23.51.38.96.45,5.94,1.58,9.55,5.49,10.83,11.74l4.06,15.8c.6,2.56.34,4.55-.79,5.98-1.13,1.43-3.01,2.14-5.64,2.14h-10.49c-4.44,0-7.15-2.14-8.12-6.43l-3.61-16.7c-.45-2.11-1.15-3.52-2.09-4.23-.94-.71-2.46-1.07-4.57-1.07h-5.3c-1.51,0-2.26.75-2.26,2.26v18.84c0,4.89-2.45,7.33-7.33,7.33h-9.37Zm18.96-45.7h6.21c3.54,0,5.89-.53,7.05-1.58,1.17-1.05,1.75-3.2,1.75-6.43s-.58-5.38-1.75-6.43c-1.17-1.05-3.52-1.58-7.05-1.58h-6.21c-1.51,0-2.26.75-2.26,2.26v11.51c0,1.51.75,2.26,2.26,2.26Z"/>
    <path class="cls-2" d="m249.16,183.49c-2.63,0-4.51-.73-5.64-2.2s-1.32-3.48-.56-6.04l16.81-59.58c1.88-6.69,6.28-10.04,13.2-10.04h14.33c6.92,0,11.32,3.35,13.2,10.04l16.81,59.58c.75,2.56.56,4.57-.56,6.04s-3.01,2.2-5.64,2.2h-9.82c-4.29,0-6.96-2.14-8.01-6.43l-1.92-8.46c-.38-1.28-1.2-1.92-2.48-1.92h-17.49c-1.28,0-2.11.64-2.48,1.92l-1.92,8.46c-.98,4.29-3.65,6.43-8.01,6.43h-9.82Zm26.74-33.97h8.46c1.65,0,2.29-.83,1.92-2.48l-3.27-14.22c-.6-2.71-.98-4.96-1.13-6.77-.23-1.43-.79-2.14-1.69-2.14h-.11c-.98,0-1.54.72-1.69,2.14-.53,3.24-.9,5.49-1.13,6.77l-3.27,14.22c-.38,1.66.26,2.48,1.92,2.48Z"/>
    <path class="cls-2" d="m378.93,184.62c-9.63,0-18.36-.23-26.18-.68-4.74-.23-7.11-2.75-7.11-7.56v-63.64c0-4.74,1.88-7.22,5.64-7.45,9.63-.53,18.84-.79,27.65-.79,9.25,0,16.42,1.15,21.5,3.44,5.08,2.29,8.82,6.32,11.23,12.07,2.41,5.75,3.61,13.94,3.61,24.54s-1.2,18.79-3.61,24.54c-2.41,5.75-6.15,9.78-11.23,12.07-5.08,2.3-12.24,3.44-21.5,3.44Zm0-17.72c4.21,0,7.01-1.48,8.41-4.46,1.39-2.97,2.09-8.93,2.09-17.89s-.7-14.91-2.09-17.89c-1.39-2.97-4.19-4.46-8.41-4.46h-6.54c-1.51,0-2.26.75-2.26,2.26v40.06c0,1.43.75,2.22,2.26,2.37h6.54Z"/>
    <path class="cls-2" d="m458.71,185.07c-9.18,0-16.31-1.15-21.38-3.44-5.08-2.29-8.82-6.36-11.23-12.19-2.41-5.83-3.61-14.12-3.61-24.88s1.2-19.05,3.61-24.88c2.41-5.83,6.15-9.89,11.23-12.19,5.08-2.29,12.2-3.44,21.38-3.44s16.42,1.15,21.5,3.44c5.08,2.29,8.82,6.36,11.23,12.19,2.41,5.83,3.61,14.12,3.61,24.88s-1.2,19.05-3.61,24.88c-2.41,5.83-6.15,9.89-11.23,12.19-5.08,2.29-12.24,3.44-21.5,3.44Zm-8.41-22.63c1.39,2.97,4.19,4.46,8.41,4.46s7.01-1.48,8.41-4.46c1.39-2.97,2.09-8.93,2.09-17.89s-.7-14.91-2.09-17.89c-1.39-2.97-4.19-4.46-8.41-4.46s-7.02,1.49-8.41,4.46c-1.39,2.97-2.09,8.93-2.09,17.89s.69,14.92,2.09,17.89Z"/>
    <path class="cls-2" d="m541.88,183.49h-30.35c-4.67-.45-7-3.05-7-7.79v-62.29c0-1.5.3-2.86.9-4.06.6-1.2,1.48-2.12,2.65-2.76,1.17-.64,2.5-.96,4.01-.96h26.07c5.64-.07,10.23.15,13.77.68,3.54.53,6.53,1.51,8.97,2.93,2.44,1.43,4.16,3.4,5.13,5.92.98,2.52,1.47,5.81,1.47,9.87,0,5.27-.94,9.27-2.82,12.02-1.88,2.75-4.96,4.5-9.25,5.25-.75.15-1.11.42-1.07.79.04.38.43.64,1.19.79,5.19.83,8.91,2.9,11.17,6.21,2.26,3.31,3.39,7.97,3.39,13.99,0,3.99-.53,7.26-1.58,9.82-1.05,2.56-2.8,4.53-5.25,5.92-2.45,1.39-5.32,2.35-8.63,2.88-3.31.53-7.56.79-12.75.79Zm-11.17-47.51h6.43c2.86,0,4.74-.49,5.64-1.47.9-.98,1.35-2.97,1.35-5.98,0-2.63-.47-4.34-1.41-5.13-.94-.79-2.88-1.18-5.81-1.18h-6.21c-1.51,0-2.26.75-2.26,2.26v9.25c0,1.51.75,2.26,2.26,2.26Zm6.77,30.92c3.46,0,5.7-.45,6.71-1.35,1.02-.9,1.52-3.05,1.52-6.43,0-3.61-.53-5.98-1.58-7.11-1.05-1.13-3.31-1.69-6.77-1.69h-6.66c-1.51,0-2.26.75-2.26,2.26v12.07c0,1.51.75,2.26,2.26,2.26h6.77Z"/>
    <path class="cls-2" d="m586.34,183.49c-4.89,0-7.33-2.44-7.33-7.33v-63.53c0-4.66,2.33-7.18,7-7.56,6.02-.38,14.71-.56,26.07-.56s20.14,1.73,25.22,5.19c5.08,3.46,7.62,9.63,7.62,18.51,0,9.86-4.59,15.87-13.77,18.06-.45.08-.79.23-1.02.45s-.25.45-.06.68c.19.23.51.38.96.45,5.94,1.58,9.55,5.49,10.83,11.74l4.06,15.8c.6,2.56.34,4.55-.79,5.98-1.13,1.43-3.01,2.14-5.64,2.14h-10.49c-4.44,0-7.15-2.14-8.12-6.43l-3.61-16.7c-.45-2.11-1.15-3.52-2.09-4.23-.94-.71-2.46-1.07-4.57-1.07h-5.3c-1.51,0-2.26.75-2.26,2.26v18.84c0,4.89-2.45,7.33-7.33,7.33h-9.37Zm18.96-45.7h6.21c3.54,0,5.89-.53,7.05-1.58,1.17-1.05,1.75-3.2,1.75-6.43s-.58-5.38-1.75-6.43c-1.17-1.05-3.52-1.58-7.05-1.58h-6.21c-1.51,0-2.26.75-2.26,2.26v11.51c0,1.51.75,2.26,2.26,2.26Z"/>
    <path class="cls-2" d="m656.98,183.49c-2.63,0-4.51-.73-5.64-2.2s-1.32-3.48-.56-6.04l16.81-59.58c1.88-6.69,6.28-10.04,13.2-10.04h14.33c6.92,0,11.32,3.35,13.2,10.04l16.81,59.58c.75,2.56.56,4.57-.56,6.04s-3.01,2.2-5.64,2.2h-9.82c-4.29,0-6.96-2.14-8.01-6.43l-1.92-8.46c-.38-1.28-1.2-1.92-2.48-1.92h-17.49c-1.28,0-2.11.64-2.48,1.92l-1.92,8.46c-.98,4.29-3.65,6.43-8.01,6.43h-9.82Zm26.74-33.97h8.46c1.65,0,2.29-.83,1.92-2.48l-3.27-14.22c-.6-2.71-.98-4.96-1.13-6.77-.23-1.43-.79-2.14-1.69-2.14h-.11c-.98,0-1.54.72-1.69,2.14-.53,3.24-.9,5.49-1.13,6.77l-3.27,14.22c-.38,1.66.26,2.48,1.92,2.48Z"/>
  </g>
  <g>
    <rect class="cls-1" x="720.77" y="54" width="65.58" height="59.62" rx="10.61" ry="10.61"/>
    <g>
      <path class="cls-2" d="m742.43,96.84c-3.56,0-6.08-.71-7.54-2.14-1.46-1.43-2.19-3.87-2.19-7.33v-11.37c0-1.22.61-1.84,1.84-1.84h2.38c1.22,0,1.84.61,1.84,1.84v11.37c0,1.89.24,3.17.71,3.83.47.67,1.35,1,2.64,1s2.2-.33,2.66-1c.46-.66.69-1.94.69-3.83v-11.37c0-1.22.61-1.84,1.84-1.84h2.42c1.2,0,1.8.61,1.8,1.84v11.37c0,3.46-.68,5.9-2.04,7.33-1.36,1.43-3.71,2.14-7.04,2.14Z"/>
      <path class="cls-2" d="m754.99,96.39c-.67,0-1.14-.18-1.42-.55-.28-.37-.32-.87-.13-1.51l5.19-17.68c.49-1.65,1.59-2.48,3.29-2.48h3.64c1.72,0,2.81.83,3.29,2.48l5.22,17.68c.09.32.12.61.1.87-.02.26-.1.47-.23.64s-.32.31-.56.4c-.25.1-.53.14-.85.14h-2.38c-1.07,0-1.75-.53-2.03-1.58l-.81-3.19c-.09-.34-.31-.52-.68-.52h-5.73c-.37,0-.59.17-.68.52l-.81,3.19c-.26,1.05-.93,1.58-2.03,1.58h-2.38Zm7.12-9.66h3.29c.45,0,.62-.22.52-.68l-1.29-5.03c-.17-.75-.29-1.34-.35-1.77-.06-.37-.23-.55-.48-.55h-.03c-.3,0-.47.18-.52.55-.15.88-.27,1.47-.35,1.77l-1.29,5.03c-.11.45.06.68.52.68Z"/>
    </g>
  </g>
  <g>
    <path class="cls-2" d="m210.54,84.4c-5.43,0-9.26-1.31-11.49-3.93-2.23-2.62-3.34-7.15-3.34-13.6s1.11-10.98,3.34-13.6c2.23-2.62,6.05-3.93,11.49-3.93,3.31,0,6.04.21,8.2.64,1.7.36,2.45,1.42,2.26,3.19l-.2,1.52c-.16,1.8-1.15,2.67-2.95,2.6-1.64-.07-4.07-.1-7.31-.1-2.03,0-3.4.66-4.1,1.99-.7,1.33-1.06,3.89-1.06,7.68s.35,6.36,1.06,7.68c.7,1.33,2.07,1.99,4.1,1.99,3.73,0,6.4-.07,8-.2,1.83-.1,2.83.75,2.99,2.55l.2,1.47c.16,1.74-.57,2.8-2.21,3.19-2.32.56-5.32.83-8.98.83Z"/>
    <path class="cls-2" d="m228.71,83.81c-1.83,0-2.75-.93-2.75-2.8v-28.28c0-1.87.92-2.8,2.75-2.8h3.68c1.83,0,2.75.93,2.75,2.8v8.84c0,.59.31.88.93.88h8.25c.62,0,.93-.29.93-.88v-8.84c0-1.87.93-2.8,2.8-2.8h3.63c1.87,0,2.8.93,2.8,2.8v28.28c0,1.87-.93,2.8-2.8,2.8h-3.63c-1.87,0-2.8-.93-2.8-2.8v-10.95c0-.59-.31-.88-.93-.88h-8.25c-.62,0-.93.29-.93.88v10.95c0,1.87-.92,2.8-2.75,2.8h-3.68Z"/>
    <path class="cls-2" d="m260.47,83.81c-1.01,0-1.73-.28-2.16-.83-.43-.56-.49-1.33-.2-2.31l7.9-26.95c.75-2.52,2.42-3.78,5.01-3.78h5.55c2.62,0,4.29,1.26,5.01,3.78l7.95,26.95c.13.49.18.93.15,1.33-.03.39-.15.72-.34.98-.2.26-.48.47-.86.61-.38.15-.81.22-1.3.22h-3.63c-1.64,0-2.67-.8-3.09-2.41l-1.23-4.86c-.13-.52-.48-.79-1.03-.79h-8.74c-.56,0-.9.26-1.03.79l-1.23,4.86c-.39,1.6-1.42,2.41-3.09,2.41h-3.63Zm10.85-14.73h5.01c.69,0,.95-.34.79-1.03l-1.96-7.66c-.26-1.15-.44-2.04-.54-2.7-.1-.56-.34-.83-.74-.83h-.05c-.46,0-.72.28-.79.83-.23,1.34-.41,2.24-.54,2.7l-1.96,7.66c-.16.69.1,1.03.79,1.03Z"/>
    <path class="cls-2" d="m295.96,83.81c-1.87,0-2.8-.93-2.8-2.8v-28.03c0-2.06,1.03-3.16,3.09-3.29,2.52-.16,5.96-.25,10.31-.25,1.96,0,3.65.09,5.06.27,1.41.18,2.7.49,3.88.93,1.18.44,2.12,1.05,2.82,1.82.7.77,1.24,1.74,1.62,2.92.38,1.18.56,2.58.56,4.22,0,2.36-.5,4.17-1.5,5.42-1,1.26-2.48,2.13-4.44,2.63-.29.1-.45.21-.47.34-.02.13.12.25.42.34,1.11.33,2.05.86,2.82,1.6s1.33,1.87,1.69,3.41l1.96,7.36c.26.98.17,1.74-.27,2.28s-1.15.81-2.14.81h-3.93c-1.67,0-2.7-.82-3.09-2.46l-1.82-7.76c-.23-.98-.58-1.65-1.06-2.01-.47-.36-1.19-.54-2.14-.54h-3.44c-.59,0-.88.31-.88.93v9.03c0,1.87-.93,2.8-2.8,2.8h-3.49Zm7.17-19.49h3.68c1.73,0,2.9-.28,3.51-.83.61-.56.91-1.64.91-3.24,0-.85-.07-1.53-.2-2.04-.13-.51-.38-.92-.74-1.23-.36-.31-.83-.52-1.4-.64-.57-.11-1.33-.17-2.28-.17-.36,0-.91,0-1.64.02-.74.02-1.28.02-1.64.02-.72,0-1.08.34-1.08,1.03v6.19c0,.59.29.88.88.88Z"/>
    <path class="cls-2" d="m328.56,83.81c-1.83,0-2.75-.93-2.75-2.8v-28.28c0-1.87.92-2.8,2.75-2.8h3.58c1.87,0,2.8.93,2.8,2.8v28.28c0,1.87-.93,2.8-2.8,2.8h-3.58Z"/>
    <path class="cls-2" d="m351.14,83.81c-1.87,0-2.8-.93-2.8-2.8v-23.07c0-.59-.29-.88-.88-.88h-6.09c-1.83,0-2.75-.93-2.75-2.8v-1.52c0-1.87.92-2.8,2.75-2.8h23.22c1.83,0,2.75.93,2.75,2.8v1.52c0,1.87-.92,2.8-2.75,2.8h-6.09c-.62,0-.93.29-.93.88v23.07c0,1.87-.92,2.8-2.75,2.8h-3.68Z"/>
    <path class="cls-2" d="m381.77,83.81c-1.87,0-2.8-.93-2.8-2.8v-6.38c0-1.08-.23-2.11-.69-3.09l-8.93-18.31c-.46-.98-.5-1.78-.12-2.38.38-.61,1.1-.91,2.18-.91h3.53c1.57,0,2.63.72,3.19,2.16l4.03,9.28c.39.92.72,2.18.98,3.78.03.16.06.28.07.34.02.07.04.14.07.22.03.08.07.14.12.17.05.03.12.05.22.05.16,0,.29-.26.39-.79.26-1.54.59-2.8.98-3.78l3.98-9.28c.59-1.44,1.67-2.16,3.24-2.16h3.49c1.08,0,1.81.3,2.18.91.38.61.33,1.4-.12,2.38l-8.89,18.26c-.46.98-.69,2.01-.69,3.09v6.43c0,1.87-.93,2.8-2.8,2.8h-3.63Z"/>
    <path class="cls-2" d="m413.88,83.81c-1.87,0-2.8-.93-2.8-2.8v-23.86c0-2.16.72-3.9,2.16-5.23,1.44-1.33,3.32-1.99,5.65-1.99h13.5c.85,0,1.5.29,1.94.88.44.59.63,1.33.56,2.21l-.05,1.23c-.13,1.8-1.1,2.7-2.9,2.7h-9.28c-1.57,0-2.36.7-2.36,2.11v3.88c0,.59.31.88.93.88h8.79c1.87,0,2.8.93,2.8,2.8v.79c0,1.83-.93,2.75-2.8,2.75h-8.79c-.62,0-.93.31-.93.93v9.92c0,1.87-.93,2.8-2.8,2.8h-3.63Z"/>
    <path class="cls-2" d="m453.35,84.5c-5.43,0-9.26-1.09-11.49-3.26s-3.34-5.9-3.34-11.17v-17.33c0-1.87.93-2.8,2.8-2.8h3.63c1.87,0,2.8.93,2.8,2.8v17.33c0,2.88.36,4.83,1.08,5.84.72,1.01,2.06,1.52,4.03,1.52s3.35-.51,4.05-1.52c.7-1.01,1.06-2.96,1.06-5.84v-17.33c0-1.87.93-2.8,2.8-2.8h3.68c1.83,0,2.75.93,2.75,2.8v17.33c0,5.27-1.04,8.99-3.12,11.17-2.08,2.18-5.65,3.26-10.73,3.26Z"/>
    <path class="cls-2" d="m475.64,83.81c-1.87,0-2.8-.93-2.8-2.8v-27.3c0-1.21.33-2.14.98-2.8.65-.65,1.59-.98,2.8-.98h2.75c2,0,3.5.87,4.52,2.6l7.85,14.14c.59,1.01,1.15,2.13,1.67,3.34.16.36.38.54.64.54.29,0,.41-.26.34-.79-.07-1.11-.1-2.23-.1-3.34v-13.7c0-1.87.93-2.8,2.8-2.8h2.99c1.83,0,2.75.93,2.75,2.8v27.29c0,1.21-.32,2.14-.96,2.8s-1.58.98-2.82.98h-2.75c-2,0-3.5-.87-4.52-2.6l-8.1-14.53c-.49-.82-.97-1.85-1.42-3.09-.13-.39-.33-.59-.59-.59-.23,0-.34.23-.34.69.06,1.11.1,2.24.1,3.39v13.94c0,1.87-.92,2.8-2.75,2.8h-3.04Z"/>
    <path class="cls-2" d="m522.62,84.3c-3.83,0-7.4-.1-10.7-.29-2.13-.1-3.19-1.24-3.19-3.44v-27.39c0-2.16.85-3.29,2.55-3.39,3.93-.23,7.71-.34,11.34-.34,2.88,0,5.25.27,7.12.81,1.87.54,3.42,1.48,4.66,2.82,1.24,1.34,2.12,3.12,2.63,5.33.51,2.21.76,5.03.76,8.47s-.25,6.26-.76,8.47c-.51,2.21-1.38,3.99-2.63,5.33-1.24,1.34-2.8,2.28-4.66,2.82-1.87.54-4.24.81-7.12.81Zm0-6.92c2.13,0,3.57-.71,4.32-2.14.75-1.42,1.13-4.21,1.13-8.37s-.38-6.95-1.13-8.39c-.75-1.44-2.19-2.16-4.32-2.16-.43,0-1.04,0-1.84.02-.8.02-1.4.02-1.79.02-.69,0-1.03.34-1.03,1.03v18.9c0,.65.33,1.01.98,1.08h3.68Z"/>
  </g>
</svg>