<?xml version="1.0" encoding="UTF-8"?>
<svg id="Layer_1" data-name="Layer 1" xmlns="http://www.w3.org/2000/svg" viewBox="0 0 807.13 236.64">
  <defs>
    <style>
      .cls-1 {
        fill: #eaff34;
      }

      .cls-1, .cls-2 {
        stroke-width: 0px;
      }

      .cls-2 {
        fill: #121429;
      }
    </style>
  </defs>
  <g>
    <path class="cls-2" d="m32.46,183.49c-4.89,0-7.33-2.44-7.33-7.33v-53.26c0-5.26,1.69-9.54,5.08-12.81s7.75-4.91,13.09-4.91c14.14,0,24.37.26,30.69.79,4.81.38,7.03,3.01,6.66,7.9l-.23,2.93c-.38,4.74-2.9,7.11-7.56,7.11h-18.51c-1.43,0-2.58.38-3.44,1.13-.87.75-1.3,1.73-1.3,2.93v48.18c0,4.89-2.45,7.33-7.33,7.33h-9.82Z"/>
    <path class="cls-2" d="m120.7,185.07c-9.18,0-16.31-1.15-21.38-3.44-5.08-2.29-8.82-6.36-11.23-12.19-2.41-5.83-3.61-14.12-3.61-24.88s1.2-19.05,3.61-24.88c2.41-5.83,6.15-9.89,11.23-12.19,5.08-2.29,12.2-3.44,21.38-3.44s16.42,1.15,21.5,3.44c5.08,2.29,8.82,6.36,11.23,12.19,2.41,5.83,3.61,14.12,3.61,24.88s-1.2,19.05-3.61,24.88c-2.41,5.83-6.15,9.89-11.23,12.19-5.08,2.29-12.24,3.44-21.5,3.44Zm-8.41-22.63c1.39,2.97,4.19,4.46,8.41,4.46s7.01-1.48,8.41-4.46c1.39-2.97,2.09-8.93,2.09-17.89s-.7-14.91-2.09-17.89c-1.39-2.97-4.19-4.46-8.41-4.46s-7.02,1.49-8.41,4.46c-1.39,2.97-2.09,8.93-2.09,17.89s.69,14.92,2.09,17.89Z"/>
    <path class="cls-2" d="m173.85,183.49c-4.89,0-7.33-2.44-7.33-7.33v-63.53c0-4.74,2.41-7.22,7.22-7.45,5.87-.45,14.44-.68,25.73-.68,12.41,0,20.89,1.84,25.45,5.53,4.55,3.69,6.83,10.68,6.83,20.99s-2.11,17.08-6.32,20.76c-4.21,3.69-11.74,5.53-22.57,5.53-3.54,0-6.7-.15-9.48-.45-1.58-.15-2.37.56-2.37,2.14v17.15c0,4.89-2.45,7.33-7.33,7.33h-9.82Zm19.41-43.45h5.64c3.31,0,5.53-.6,6.66-1.8,1.13-1.2,1.69-3.61,1.69-7.22s-.56-6.15-1.69-7.39c-1.13-1.24-3.35-1.86-6.66-1.86h-5.64c-1.51,0-2.26.75-2.26,2.26v13.77c0,1.51.75,2.26,2.26,2.26Z"/>
    <path class="cls-2" d="m237.72,183.49c-2.63,0-4.51-.73-5.64-2.2-1.13-1.47-1.32-3.48-.56-6.04l16.81-59.58c1.88-6.69,6.28-10.04,13.2-10.04h14.33c6.92,0,11.32,3.35,13.2,10.04l16.81,59.58c.75,2.56.56,4.57-.56,6.04-1.13,1.47-3.01,2.2-5.64,2.2h-9.82c-4.29,0-6.96-2.14-8.01-6.43l-1.92-8.46c-.38-1.28-1.2-1.92-2.48-1.92h-17.49c-1.28,0-2.11.64-2.48,1.92l-1.92,8.46c-.98,4.29-3.65,6.43-8.01,6.43h-9.82Zm26.74-33.97h8.46c1.65,0,2.29-.83,1.92-2.48l-3.27-14.22c-.6-2.71-.98-4.96-1.13-6.77-.23-1.43-.79-2.14-1.69-2.14h-.11c-.98,0-1.54.72-1.69,2.14-.53,3.24-.9,5.49-1.13,6.77l-3.27,14.22c-.38,1.66.26,2.48,1.92,2.48Z"/>
    <path class="cls-2" d="m339.5,200.53c-4.89,0-7.33-2.45-7.33-7.33v-18.39c0-1.88.49-3.46,1.47-4.74.98-1.28,2.22-2.07,3.72-2.37l.56-.11c1.05-.15,1.84-.75,2.37-1.81,3.23-7.52,5.45-14.16,6.66-19.92,1.2-5.75,2.29-13.41,3.27-22.96.53-5.04,2.54-9.18,6.04-12.41,3.5-3.23,7.92-4.85,13.26-4.85h25.84c3.84,0,6.77,1.02,8.8,3.05s3.05,4.96,3.05,8.8v47.73c0,1.5.75,2.26,2.26,2.26h3.16c3.54,0,5.3,2.45,5.3,7.33v18.39c0,4.89-2.45,7.33-7.33,7.33h-3.38c-4.67,0-7.22-2.33-7.67-7l-.79-7.9c-.23-1.43-1.02-2.14-2.37-2.14h-42.66c-1.35,0-2.14.71-2.37,2.14l-.79,7.9c-.45,4.66-3.01,7-7.67,7h-3.39Zm27.2-33.06h13.77c1.5,0,2.26-.75,2.26-2.26v-41.3c0-1.5-.75-2.26-2.26-2.26h-2.37c-3.16,0-4.89,1.81-5.19,5.42-1.81,17-4.44,29.6-7.9,37.8-.75,1.73-.19,2.6,1.69,2.6Z"/>
    <path class="cls-2" d="m458.44,185.07c-9.18,0-16.31-1.15-21.38-3.44-5.08-2.29-8.82-6.36-11.23-12.19-2.41-5.83-3.61-14.12-3.61-24.88s1.2-19.05,3.61-24.88c2.41-5.83,6.15-9.89,11.23-12.19,5.08-2.29,12.2-3.44,21.38-3.44s16.42,1.15,21.5,3.44c5.08,2.29,8.82,6.36,11.23,12.19,2.41,5.83,3.61,14.12,3.61,24.88s-1.21,19.05-3.61,24.88c-2.41,5.83-6.15,9.89-11.23,12.19-5.08,2.29-12.24,3.44-21.5,3.44Zm-8.41-22.63c1.39,2.97,4.19,4.46,8.41,4.46s7.01-1.48,8.41-4.46c1.39-2.97,2.09-8.93,2.09-17.89s-.7-14.91-2.09-17.89c-1.39-2.97-4.19-4.46-8.41-4.46s-7.02,1.49-8.41,4.46c-1.39,2.97-2.09,8.93-2.09,17.89s.7,14.92,2.09,17.89Z"/>
    <path class="cls-2" d="m540.25,184.39c-11.44,0-20.92-.15-28.44-.45-4.74-.23-7.11-2.75-7.11-7.56v-63.64c0-4.81,2.37-7.33,7.11-7.56,6.7-.3,13.99-.45,21.89-.45,6.92,0,14.41.19,22.46.56,2.41.08,4.21.79,5.42,2.14,1.2,1.35,1.65,3.24,1.35,5.64l-.34,3.05c-.45,4.67-3.01,7-7.67,7h-23.47c-1.51,0-2.26.75-2.26,2.26v8.12c0,1.51.75,2.26,2.26,2.26h5.53c12.19,0,20.61,1.69,25.28,5.08,4.66,3.39,7,9.71,7,18.96s-2.26,15.67-6.77,19.24c-4.51,3.57-11.92,5.36-22.23,5.36Zm-3.27-16.93c3.23,0,5.34-.54,6.32-1.64.98-1.09,1.47-3.37,1.47-6.83s-.49-5.74-1.47-6.83c-.98-1.09-3.09-1.64-6.32-1.64h-5.53c-1.51,0-2.26.75-2.26,2.26v12.41c0,1.5.75,2.26,2.26,2.26h5.53Z"/>
    <path class="cls-2" d="m584.71,183.49c-4.89,0-7.33-2.44-7.33-7.33v-63.53c0-4.74,2.41-7.22,7.22-7.45,5.87-.45,14.44-.68,25.73-.68,12.41,0,20.89,1.84,25.45,5.53,4.55,3.69,6.83,10.68,6.83,20.99s-2.11,17.08-6.32,20.76c-4.21,3.69-11.74,5.53-22.57,5.53-3.54,0-6.7-.15-9.48-.45-1.58-.15-2.37.56-2.37,2.14v17.15c0,4.89-2.45,7.33-7.33,7.33h-9.82Zm19.41-43.45h5.64c3.31,0,5.53-.6,6.66-1.8,1.13-1.2,1.69-3.61,1.69-7.22s-.56-6.15-1.69-7.39c-1.13-1.24-3.35-1.86-6.66-1.86h-5.64c-1.51,0-2.26.75-2.26,2.26v13.77c0,1.51.75,2.26,2.26,2.26Z"/>
    <path class="cls-2" d="m648.58,183.49c-2.63,0-4.51-.73-5.64-2.2-1.13-1.47-1.32-3.48-.56-6.04l16.81-59.58c1.88-6.69,6.28-10.04,13.2-10.04h14.33c6.92,0,11.32,3.35,13.2,10.04l16.81,59.58c.75,2.56.56,4.57-.56,6.04-1.13,1.47-3.01,2.2-5.64,2.2h-9.82c-4.29,0-6.96-2.14-8.01-6.43l-1.92-8.46c-.38-1.28-1.2-1.92-2.48-1.92h-17.49c-1.28,0-2.11.64-2.48,1.92l-1.92,8.46c-.98,4.29-3.65,6.43-8.01,6.43h-9.82Zm26.74-33.97h8.46c1.65,0,2.29-.83,1.92-2.48l-3.27-14.22c-.6-2.71-.98-4.96-1.13-6.77-.23-1.43-.79-2.14-1.69-2.14h-.11c-.98,0-1.54.72-1.69,2.14-.53,3.24-.9,5.49-1.13,6.77l-3.27,14.22c-.38,1.66.26,2.48,1.92,2.48Z"/>
  </g>
  <g>
    <rect class="cls-1" x="712.67" y="54" width="65.58" height="59.62" rx="10.61" ry="10.61"/>
    <g>
      <path class="cls-2" d="m734.33,96.84c-3.56,0-6.08-.71-7.54-2.14-1.46-1.43-2.19-3.87-2.19-7.33v-11.37c0-1.22.61-1.84,1.84-1.84h2.38c1.22,0,1.84.61,1.84,1.84v11.37c0,1.89.24,3.17.71,3.83.47.67,1.35,1,2.64,1s2.2-.33,2.66-1c.46-.66.69-1.94.69-3.83v-11.37c0-1.22.61-1.84,1.84-1.84h2.42c1.2,0,1.8.61,1.8,1.84v11.37c0,3.46-.68,5.9-2.04,7.33-1.36,1.43-3.71,2.14-7.04,2.14Z"/>
      <path class="cls-2" d="m746.89,96.39c-.67,0-1.14-.18-1.42-.55-.28-.37-.32-.87-.13-1.51l5.19-17.68c.49-1.65,1.59-2.48,3.29-2.48h3.64c1.72,0,2.81.83,3.29,2.48l5.22,17.68c.09.32.12.61.1.87s-.1.47-.23.64-.32.31-.56.4c-.25.1-.53.14-.85.14h-2.38c-1.07,0-1.75-.53-2.03-1.58l-.81-3.19c-.09-.34-.31-.52-.68-.52h-5.73c-.37,0-.59.17-.68.52l-.8,3.19c-.26,1.05-.93,1.58-2.03,1.58h-2.38Zm7.12-9.66h3.29c.45,0,.62-.22.52-.68l-1.29-5.03c-.17-.75-.29-1.34-.35-1.77-.06-.37-.23-.55-.48-.55h-.03c-.3,0-.47.18-.52.55-.15.88-.27,1.47-.35,1.77l-1.29,5.03c-.11.45.06.68.52.68Z"/>
    </g>
  </g>
  <g>
    <path class="cls-2" d="m130.79,84.2c-4.39,0-8.08-.07-11.09-.2-.95-.03-1.69-.34-2.23-.93s-.81-1.36-.81-2.31v-27.74c0-.98.27-1.76.81-2.33.54-.57,1.3-.89,2.28-.96,3.01-.13,6.02-.2,9.03-.2s6.07.08,9.48.25c.88.03,1.56.32,2.04.86.47.54.65,1.25.52,2.13l-.1,1.28c-.2,1.77-1.16,2.65-2.9,2.65h-10.9c-.69,0-1.03.34-1.03,1.03v4.66c0,.62.31.93.93.93h3.24c2.55,0,4.66.16,6.31.49,1.65.33,3.02.9,4.1,1.72s1.84,1.87,2.28,3.17.66,2.95.66,4.98c0,2.13-.25,3.88-.74,5.25-.49,1.38-1.28,2.45-2.38,3.22-1.1.77-2.39,1.3-3.88,1.6-1.49.29-3.36.44-5.62.44Zm-.74-6.63c1.7,0,2.81-.26,3.34-.79.52-.52.79-1.65.79-3.39s-.26-2.83-.79-3.39c-.52-.56-1.64-.83-3.34-.83h-3.24c-.62,0-.93.29-.93.88v6.48c0,.69.34,1.03,1.03,1.03h3.14Z"/>
    <path class="cls-2" d="m147.87,84.25c-1.67-.03-2.59-.95-2.75-2.75l-.15-2.01c-.1-.82.04-1.46.42-1.91.38-.46.99-.88,1.84-1.28,1.08-.49,1.85-1.38,2.31-2.65.98-2.75,1.75-8,2.31-15.76.36-5.3,3.19-7.95,8.49-7.95h10.8c1.5,0,2.65.39,3.44,1.18.79.79,1.18,1.93,1.18,3.44v26.46c0,1.87-.93,2.8-2.8,2.8h-3.63c-1.87,0-2.8-.93-2.8-2.8v-23.91c0-.59-.31-.88-.93-.88h-2.16c-1.74,0-2.67.83-2.8,2.5-.69,8.54-1.55,14.35-2.6,17.43-.92,2.88-2.23,4.96-3.93,6.23-1.7,1.28-3.78,1.9-6.23,1.87Z"/>
    <path class="cls-2" d="m181.94,83.81c-1.01,0-1.73-.28-2.16-.83-.43-.56-.49-1.33-.2-2.31l7.9-26.95c.75-2.52,2.42-3.78,5.01-3.78h5.55c2.62,0,4.29,1.26,5.01,3.78l7.95,26.95c.13.49.18.93.15,1.33-.03.39-.15.72-.34.98-.2.26-.48.47-.86.61-.38.15-.81.22-1.3.22h-3.63c-1.64,0-2.67-.8-3.09-2.41l-1.23-4.86c-.13-.52-.48-.79-1.03-.79h-8.74c-.56,0-.9.26-1.03.79l-1.23,4.86c-.39,1.6-1.42,2.41-3.09,2.41h-3.63Zm10.85-14.73h5.01c.69,0,.95-.34.79-1.03l-1.96-7.66c-.26-1.15-.44-2.04-.54-2.7-.1-.56-.34-.83-.74-.83h-.05c-.46,0-.72.28-.79.83-.23,1.34-.41,2.24-.54,2.7l-1.96,7.66c-.16.69.1,1.03.79,1.03Z"/>
    <path class="cls-2" d="m217.48,83.81c-.88,0-1.57-.25-2.06-.74s-.74-1.18-.74-2.06v-23.76c0-1.44.32-2.73.96-3.88.64-1.15,1.53-2.03,2.68-2.65,1.15-.62,2.45-.93,3.93-.93,6.02,0,10.38.1,13.06.29.88.07,1.55.37,1.99.91.44.54.63,1.24.56,2.09l-.1,1.18c-.07.85-.34,1.51-.83,1.99-.49.48-1.16.71-2.01.71h-8.69c-1.54,0-2.31.74-2.31,2.21v21.85c0,.88-.25,1.57-.74,2.06-.49.49-1.18.74-2.06.74h-3.63Z"/>
    <path class="cls-2" d="m255.18,84.5c-2.88,0-5.25-.27-7.12-.81s-3.42-1.49-4.66-2.85-2.12-3.16-2.63-5.4c-.51-2.24-.76-5.1-.76-8.57s.25-6.32.76-8.57c.51-2.24,1.38-4.04,2.63-5.4,1.24-1.36,2.8-2.31,4.66-2.85s4.24-.81,7.12-.81,5.25.27,7.12.81c1.87.54,3.42,1.49,4.66,2.85,1.24,1.36,2.13,3.16,2.65,5.4.52,2.24.79,5.1.79,8.57,0,2.78-.17,5.15-.52,7.12s-.88,3.63-1.6,5.01c-.72,1.37-1.69,2.46-2.92,3.26-1.23.8-2.65,1.38-4.27,1.72s-3.59.52-5.92.52Zm0-7.07c1.11,0,2-.16,2.68-.47.67-.31,1.23-.88,1.67-1.69.44-.82.74-1.88.91-3.19.16-1.31.25-3.04.25-5.2,0-4.16-.38-6.95-1.13-8.39s-2.21-2.16-4.37-2.16-3.62.72-4.37,2.16-1.13,4.24-1.13,8.39.38,6.96,1.13,8.39c.75,1.44,2.21,2.16,4.37,2.16Z"/>
    <path class="cls-2" d="m274.48,91.22c-1.8,0-2.7-.9-2.7-2.7v-8.35c0-.69.18-1.26.54-1.72.36-.46.83-.74,1.42-.83l.64-.05c.42-.07.75-.31.98-.74,1.38-3.24,2.35-6.25,2.92-9.03.57-2.78,1.04-6.3,1.4-10.55.07-.85.25-1.65.54-2.41s.68-1.42,1.15-2.01c.47-.59,1.04-1.11,1.69-1.55.65-.44,1.38-.78,2.18-1.01.8-.23,1.68-.34,2.63-.34h10.65c1.47,0,2.61.39,3.41,1.18.8.79,1.2,1.93,1.2,3.44v22.09c0,.59.29.88.88.88h1.62c1.34,0,2.01.88,2.01,2.65v8.35c0,1.8-.9,2.7-2.7,2.7h-1.33c-1.74,0-2.67-.87-2.8-2.6l-.34-3.93c-.1-.59-.43-.88-.98-.88h-19.59c-.56,0-.87.29-.93.88l-.34,3.93c-.16,1.73-1.11,2.6-2.85,2.6h-1.33Zm10.85-13.7h7.66c.62,0,.93-.29.93-.88v-19.54c0-.59-.31-.88-.93-.88h-2.16c-.82,0-1.42.21-1.82.61-.39.41-.64,1.07-.74,1.99-.39,4.19-.87,7.63-1.42,10.33-.56,2.7-1.31,5.15-2.26,7.34-.29.69-.05,1.03.74,1.03Z"/>
    <path class="cls-2" d="m314.24,83.81c-1.83,0-2.75-.93-2.75-2.8v-28.28c0-1.87.92-2.8,2.75-2.8h3.58c1.87,0,2.8.93,2.8,2.8v28.28c0,1.87-.93,2.8-2.8,2.8h-3.58Z"/>
    <path class="cls-2" d="m329.51,83.81c-1.83,0-2.75-.93-2.75-2.8v-28.28c0-1.87.92-2.8,2.75-2.8h3.24c1.83,0,2.75.93,2.75,2.8v14.43c0,.92-.03,1.77-.1,2.55-.03.43.05.66.25.69.2.03.38-.13.54-.49.16-.33.39-.78.69-1.35.29-.57.47-.94.54-1.1l8.64-15.56c.69-1.31,1.78-1.96,3.29-1.96h3.88c1.87,0,2.8.93,2.8,2.8v28.28c0,1.87-.93,2.8-2.8,2.8h-3.19c-1.87,0-2.8-.93-2.8-2.8v-14.88c0-1.11.02-1.88.05-2.31,0-.26-.04-.45-.12-.56-.08-.11-.19-.14-.32-.07s-.25.21-.34.44c-.2.56-.57,1.36-1.13,2.41l-8.64,15.81c-.69,1.31-1.78,1.96-3.29,1.96h-3.93Zm17.7-37.78c-1.46,1.03-3.28,1.55-5.47,1.55s-4.03-.52-5.5-1.55-2.42-2.35-2.85-3.95c-.1-.39-.11-.75-.02-1.08.08-.33.24-.6.47-.83.23-.23.52-.4.88-.52.36-.11.75-.17,1.18-.17h.59c.39,0,.71.04.96.12.25.08.47.25.69.52s.37.47.47.64c.1.16.26.51.49,1.03.36,1.05,1.24,1.57,2.65,1.57s2.24-.52,2.6-1.57c.23-.52.39-.87.49-1.03.1-.16.25-.38.47-.64.21-.26.44-.43.69-.52.25-.08.56-.12.96-.12h.54c.92,0,1.63.24,2.13.71.51.47.65,1.1.42,1.89-.43,1.6-1.37,2.92-2.82,3.95Z"/>
    <path class="cls-2" d="m364.9,83.81c-1.83,0-2.75-.93-2.75-2.8v-28.28c0-1.87.92-2.8,2.75-2.8h3.68c1.83,0,2.75.93,2.75,2.8v8.84c0,.59.31.88.93.88h8.25c.62,0,.93-.29.93-.88v-8.84c0-1.87.93-2.8,2.8-2.8h3.63c1.87,0,2.8.93,2.8,2.8v28.28c0,1.87-.93,2.8-2.8,2.8h-3.63c-1.87,0-2.8-.93-2.8-2.8v-10.95c0-.59-.31-.88-.93-.88h-8.25c-.62,0-.93.29-.93.88v10.95c0,1.87-.92,2.8-2.75,2.8h-3.68Z"/>
    <path class="cls-2" d="m399.51,83.81c-1.83,0-2.75-.93-2.75-2.8v-28.28c0-1.87.92-2.8,2.75-2.8h3.24c1.83,0,2.75.93,2.75,2.8v14.43c0,.92-.03,1.77-.1,2.55-.03.43.05.66.25.69.2.03.38-.13.54-.49.16-.33.39-.78.69-1.35.29-.57.47-.94.54-1.1l8.64-15.56c.69-1.31,1.78-1.96,3.29-1.96h3.88c1.87,0,2.8.93,2.8,2.8v28.28c0,1.87-.93,2.8-2.8,2.8h-3.19c-1.87,0-2.8-.93-2.8-2.8v-14.88c0-1.11.02-1.88.05-2.31,0-.26-.04-.45-.12-.56-.08-.11-.19-.14-.32-.07s-.25.21-.34.44c-.2.56-.56,1.36-1.08,2.41l-8.69,15.81c-.69,1.31-1.78,1.96-3.29,1.96h-3.93Z"/>
    <path class="cls-2" d="m435.06,83.81c-1.83,0-2.75-.93-2.75-2.8v-28.28c0-1.87.92-2.8,2.75-2.8h3.24c1.83,0,2.75.93,2.75,2.8v14.43c0,.92-.03,1.77-.1,2.55-.03.43.05.66.25.69.2.03.38-.13.54-.49.16-.33.39-.78.69-1.35.29-.57.47-.94.54-1.1l8.64-15.56c.69-1.31,1.78-1.96,3.29-1.96h3.88c1.87,0,2.8.93,2.8,2.8v28.28c0,1.87-.93,2.8-2.8,2.8h-3.19c-1.87,0-2.8-.93-2.8-2.8v-14.88c0-1.11.02-1.88.05-2.31,0-.26-.04-.45-.12-.56-.08-.11-.19-.14-.32-.07-.13.07-.25.21-.34.44-.2.56-.57,1.36-1.13,2.41l-8.64,15.81c-.69,1.31-1.78,1.96-3.29,1.96h-3.93Zm17.7-37.78c-1.46,1.03-3.28,1.55-5.47,1.55s-4.03-.52-5.5-1.55-2.42-2.35-2.85-3.95c-.1-.39-.11-.75-.03-1.08.08-.33.24-.6.47-.83s.52-.4.88-.52c.36-.11.75-.17,1.18-.17h.59c.39,0,.71.04.96.12.25.08.47.25.69.52.21.26.37.47.47.64.1.16.26.51.49,1.03.36,1.05,1.24,1.57,2.65,1.57s2.24-.52,2.6-1.57c.23-.52.39-.87.49-1.03.1-.16.25-.38.47-.64s.44-.43.69-.52c.25-.08.56-.12.96-.12h.54c.92,0,1.63.24,2.14.71.51.47.65,1.1.42,1.89-.43,1.6-1.37,2.92-2.82,3.95Z"/>
    <path class="cls-2" d="m494.51,84.74c-1.83,0-2.77-.9-2.8-2.7v-.74c0-.52-.28-.82-.83-.88-5.37-.39-9.14-1.63-11.32-3.71-2.18-2.08-3.26-5.51-3.26-10.29s1.09-8.44,3.26-10.6c2.18-2.16,5.95-3.44,11.32-3.83.56-.07.83-.36.83-.88v-.74c.03-1.8.96-2.7,2.8-2.7h3.63c1.83,0,2.77.88,2.8,2.65v.79c0,.52.31.82.93.88,5.3.39,9.03,1.67,11.19,3.83s3.26,5.69,3.29,10.6c-.03,4.78-1.14,8.21-3.31,10.29-2.18,2.08-5.93,3.31-11.27,3.71-.56.07-.83.36-.83.88v.74c-.03,1.8-.97,2.7-2.8,2.7h-3.63Zm-3.29-11c.62.13.93-.11.93-.74v-13.6c0-.62-.29-.87-.88-.74-2.26.29-3.77.99-4.54,2.09-.77,1.1-1.15,2.99-1.15,5.67,0,2.52.38,4.3,1.15,5.35.77,1.05,2.27,1.7,4.49,1.96Zm10.21,0c2.23-.26,3.72-.92,4.49-1.96.77-1.05,1.15-2.83,1.15-5.35,0-1.8-.16-3.21-.47-4.22-.31-1.01-.88-1.81-1.69-2.38-.82-.57-1.98-.96-3.49-1.15-.62-.1-.93.16-.93.79v13.55c0,.26.08.47.25.61s.39.19.69.12Z"/>
    <path class="cls-2" d="m534.57,84.5c-2.88,0-5.25-.27-7.12-.81s-3.42-1.49-4.66-2.85-2.12-3.16-2.63-5.4c-.51-2.24-.76-5.1-.76-8.57s.25-6.32.76-8.57c.51-2.24,1.38-4.04,2.63-5.4,1.24-1.36,2.8-2.31,4.66-2.85s4.24-.81,7.12-.81,5.25.27,7.12.81c1.87.54,3.42,1.49,4.66,2.85,1.24,1.36,2.13,3.16,2.65,5.4.52,2.24.79,5.1.79,8.57,0,2.78-.17,5.15-.52,7.12s-.88,3.63-1.6,5.01c-.72,1.37-1.69,2.46-2.92,3.26-1.23.8-2.65,1.38-4.27,1.72s-3.59.52-5.92.52Zm0-7.07c1.11,0,2-.16,2.68-.47.67-.31,1.23-.88,1.67-1.69.44-.82.74-1.88.91-3.19.16-1.31.25-3.04.25-5.2,0-4.16-.38-6.95-1.13-8.39s-2.21-2.16-4.37-2.16-3.62.72-4.37,2.16-1.13,4.24-1.13,8.39.38,6.96,1.13,8.39c.75,1.44,2.21,2.16,4.37,2.16Z"/>
    <path class="cls-2" d="m557.44,83.81c-1.83,0-2.75-.93-2.75-2.8v-28.28c0-1.87.92-2.8,2.75-2.8h3.68c1.83,0,2.75.93,2.75,2.8v8.84c0,.59.31.88.93.88h8.25c.62,0,.93-.29.93-.88v-8.84c0-1.87.93-2.8,2.8-2.8h3.63c1.87,0,2.8.93,2.8,2.8v28.28c0,1.87-.93,2.8-2.8,2.8h-3.63c-1.87,0-2.8-.93-2.8-2.8v-10.95c0-.59-.31-.88-.93-.88h-8.25c-.62,0-.93.29-.93.88v10.95c0,1.87-.92,2.8-2.75,2.8h-3.68Z"/>
    <path class="cls-2" d="m589.55,91.22c-1.8,0-2.7-.9-2.7-2.7v-8.35c0-.69.18-1.26.54-1.72.36-.46.83-.74,1.42-.83l.64-.05c.42-.07.75-.31.98-.74,1.38-3.24,2.35-6.25,2.92-9.03.57-2.78,1.04-6.3,1.4-10.55.07-.85.25-1.65.54-2.41s.68-1.42,1.15-2.01c.47-.59,1.04-1.11,1.69-1.55.65-.44,1.38-.78,2.18-1.01.8-.23,1.68-.34,2.63-.34h10.65c1.47,0,2.61.39,3.41,1.18.8.79,1.2,1.93,1.2,3.44v22.09c0,.59.29.88.88.88h1.62c1.34,0,2.01.88,2.01,2.65v8.35c0,1.8-.9,2.7-2.7,2.7h-1.33c-1.74,0-2.67-.87-2.8-2.6l-.34-3.93c-.1-.59-.43-.88-.98-.88h-19.59c-.56,0-.87.29-.93.88l-.34,3.93c-.16,1.73-1.11,2.6-2.85,2.6h-1.33Zm10.85-13.7h7.66c.62,0,.93-.29.93-.88v-19.54c0-.59-.31-.88-.93-.88h-2.16c-.82,0-1.42.21-1.82.61-.39.41-.64,1.07-.74,1.99-.39,4.19-.87,7.63-1.42,10.33-.56,2.7-1.31,5.15-2.26,7.34-.29.69-.05,1.03.74,1.03Z"/>
  </g>
</svg>