<?xml version="1.0" encoding="UTF-8"?>
<svg id="Layer_1" data-name="Layer 1" xmlns="http://www.w3.org/2000/svg" viewBox="0 0 443.92 468.75">
  <defs>
    <style>
      .cls-1 {
        fill: #eaff34;
      }

      .cls-1, .cls-2, .cls-3 {
        stroke-width: 0px;
      }

      .cls-3 {
        fill: #adddf4;
      }
    </style>
  </defs>
  <g>
    <path class="cls-3" d="m435.69,186.88c-6.73,45.55-35.37,74.9-70.57,109.78-51.88,51.4-98.11,95.08-136.72,130.63-3.56,3.27-9.04,3.23-12.54-.1-34.1-32.39-79.56-76.2-134.13-130.53-35.3-35.14-63.86-64.36-70.57-109.78-4.83-32.7,4.05-57.64,6.27-63.51,16.3-43.15,58.97-80.12,111.35-83.9,49.64-3.59,84.89,24.31,93.31,31.36,8.49-7.03,44.95-35.61,95.99-31.36,51.55,4.29,94.81,40.11,111.35,83.9,2.21,5.87,11.11,30.81,6.27,63.51Z"/>
    <path class="cls-2" d="m307.78,56.14c2.94,0,5.92.12,8.87.37,21.44,1.78,42.1,9.95,59.75,23.62,8.42,6.52,15.89,14.1,22.21,22.52,6.29,8.38,11.27,17.39,14.81,26.75,2.91,7.72,9.26,28.54,5.36,54.98-2.69,18.2-9.56,34.55-21.61,51.46-11.25,15.78-25.99,30.75-44.08,48.67-43.03,42.64-87.02,84.72-130.82,125.17-41.94-39.92-85.13-81.99-128.48-125.14-18.8-18.72-32.97-33.17-44.15-48.85-12.04-16.88-18.89-33.18-21.57-51.32-3.91-26.47,2.44-47.26,5.35-54.97,7.1-18.79,20.13-36.3,36.7-49.3,17.68-13.88,38.39-22.03,59.88-23.58,2.5-.18,5.04-.27,7.54-.27,36.57,0,63.62,19.36,73.56,27.69,3.18,2.66,7.08,3.99,10.98,3.99s7.74-1.31,10.91-3.93c10.11-8.38,37.64-27.86,74.79-27.86h0m0-17.1c-45.61,0-77.79,25.24-85.69,31.79-7.91-6.63-39.53-31.68-84.54-31.68-2.87,0-5.79.1-8.77.32-52.38,3.78-95.05,40.75-111.35,83.9-2.22,5.87-11.11,30.81-6.27,63.51,6.71,45.42,35.27,74.64,70.57,109.78,54.58,54.33,100.03,98.13,134.13,130.53,1.77,1.68,4.05,2.53,6.33,2.53s4.46-.81,6.22-2.43c38.61-35.55,84.83-79.22,136.72-130.63,35.21-34.88,63.84-64.23,70.57-109.78,4.83-32.7-4.06-57.64-6.27-63.51-16.54-43.79-59.8-79.61-111.35-83.9-3.5-.29-6.93-.43-10.3-.43h0Z"/>
  </g>
  <g>
    <path class="cls-1" d="m96.63,295.09c66.13-62.47,132.25-124.94,198.38-187.4,39.99,38.16,79.98,76.32,119.97,114.48-20.3,26.11-43.15,53.31-68.83,80.96-42.4,45.65-84.51,83.94-123.69,115.8-23.12-20.24-46.96-42.35-71.16-66.45-19.52-19.44-37.72-38.63-54.67-57.39Z"/>
    <path class="cls-2" d="m222.47,427.48c-2.01,0-4.02-.71-5.63-2.12-24.46-21.41-48.54-43.89-71.56-66.83-18.74-18.67-37.24-38.09-54.98-57.71-3.12-3.45-2.91-8.76.47-11.95l198.38-187.4c3.31-3.12,8.48-3.11,11.77.03l119.97,114.48c3.17,3.03,3.54,7.97.85,11.43-21.82,28.07-45.14,55.5-69.31,81.53-38.58,41.54-80.49,80.78-124.57,116.62-1.57,1.28-3.48,1.92-5.39,1.92Zm-113.86-131.94c15.81,17.3,32.18,34.38,48.74,50.88,21.06,20.98,43.01,41.57,65.33,61.3,41.42-34.1,80.83-71.21,117.23-110.41,22.09-23.78,43.45-48.75,63.58-74.31l-108.49-103.53-186.39,176.07Z"/>
  </g>
  <g>
    <path class="cls-1" d="m211.9,185.31c-38.28,37.51-76.55,75.03-114.83,112.54-12.08-9.75-26.66-23.34-40.84-41.53-15.36-19.69-25.44-38.59-32.05-53.52,33.56-33.01,67.12-66.03,100.68-99.04,29.01,27.18,58.02,54.37,87.04,81.55Z"/>
    <path class="cls-2" d="m97.07,306.4c-1.89,0-3.79-.63-5.37-1.9-15.65-12.63-29.85-27.07-42.21-42.92-13.25-16.99-24.39-35.6-33.13-55.31-1.44-3.25-.72-7.06,1.82-9.56l100.68-99.04c3.27-3.22,8.49-3.28,11.84-.14l87.04,81.55c1.7,1.59,2.68,3.81,2.7,6.14.03,2.33-.9,4.57-2.56,6.2l-114.83,112.54c-1.65,1.62-3.82,2.44-5.99,2.44Zm-62.62-101.7c7.76,16.46,17.34,32.03,28.53,46.36,10,12.82,21.29,24.66,33.63,35.27l102.94-100.88-74.54-69.84-90.56,89.09Z"/>
  </g>
</svg>