<?xml version="1.0" encoding="UTF-8"?>
<svg id="Layer_1" data-name="Layer 1" xmlns="http://www.w3.org/2000/svg" viewBox="0 0 452.64 161.66">
  <defs>
    <style>
      .cls-1 {
        fill: #eaff34;
      }

      .cls-1, .cls-2, .cls-3, .cls-4 {
        stroke-width: 0px;
      }

      .cls-3 {
        fill: #121429;
      }

      .cls-4 {
        fill: #adddf4;
      }
    </style>
  </defs>
  <g>
    <g>
      <path class="cls-3" d="m258.22,132.83c-2.28,0-3.93-.78-4.94-2.33-1.02-1.55-1.53-4.16-1.53-7.81s.69-6.35,2.06-7.87,3.75-2.27,7.12-2.27c2.18,0,3.95.14,5.28.42,1.09.23,1.58.92,1.47,2.09l-.11.96c-.11,1.19-.75,1.76-1.92,1.72-.43,0-1.15,0-2.16-.01-1.01,0-1.85-.01-2.53-.01-1.09,0-1.83.33-2.2.99s-.56,1.99-.56,3.98.17,3.27.51,3.93c.34.66,1,.99,1.98.99.6,0,1.14-.03,1.61-.08.34-.06.51-.26.51-.62v-3.84c0-1.22.61-1.84,1.84-1.84h2.2c1.22,0,1.84.61,1.84,1.84v7.54c0,1.22-.61,1.84-1.84,1.84h-1.04c-.96,0-1.61-.41-1.95-1.24l-.11-.34c-.06-.24-.27-.2-.65.14-1.34,1.22-2.96,1.84-4.86,1.84Z"/>
      <path class="cls-3" d="m279.69,132.83c-2.3,0-4.08-.29-5.35-.86-1.27-.57-2.21-1.59-2.81-3.05s-.9-3.54-.9-6.23.3-4.77.9-6.23c.6-1.46,1.54-2.48,2.81-3.05,1.27-.57,3.06-.86,5.35-.86s4.11.29,5.38.86,2.21,1.59,2.81,3.05c.6,1.46.9,3.54.9,6.23s-.3,4.77-.9,6.23-1.54,2.48-2.81,3.05-3.06.86-5.38.86Zm-2.1-5.66c.35.74,1.05,1.12,2.1,1.12s1.76-.37,2.1-1.12c.35-.74.52-2.24.52-4.48s-.17-3.73-.52-4.48c-.35-.74-1.05-1.12-2.1-1.12s-1.76.37-2.1,1.12c-.35.74-.52,2.24-.52,4.48s.17,3.73.52,4.48Z"/>
      <path class="cls-3" d="m292.99,132.43c-1.22,0-1.84-.61-1.84-1.84v-15.9c0-1.17.58-1.8,1.75-1.89,1.51-.09,3.68-.14,6.52-.14s5.04.43,6.31,1.3c1.27.87,1.91,2.41,1.91,4.63,0,2.47-1.15,3.97-3.45,4.52-.11.02-.2.06-.25.11-.06.06-.06.11-.01.17s.13.09.24.11c1.49.4,2.39,1.38,2.71,2.94l1.02,3.95c.15.64.08,1.14-.2,1.5-.28.36-.75.54-1.41.54h-2.63c-1.11,0-1.79-.54-2.03-1.61l-.9-4.18c-.11-.53-.29-.88-.52-1.06-.24-.18-.62-.27-1.14-.27h-1.33c-.38,0-.57.19-.57.56v4.72c0,1.22-.61,1.84-1.84,1.84h-2.34Zm4.75-11.44h1.55c.88,0,1.47-.13,1.77-.4.29-.26.44-.8.44-1.61s-.15-1.35-.44-1.61c-.29-.26-.88-.4-1.77-.4h-1.55c-.38,0-.57.19-.57.56v2.88c0,.38.19.56.57.56Z"/>
      <path class="cls-3" d="m310.67,132.43c-.66,0-1.13-.18-1.41-.55-.28-.37-.33-.87-.14-1.51l4.21-14.91c.47-1.68,1.57-2.51,3.3-2.51h3.59c1.73,0,2.83.84,3.3,2.51l4.21,14.91c.19.64.14,1.14-.14,1.51-.28.37-.75.55-1.41.55h-2.46c-1.07,0-1.74-.54-2.01-1.61l-.48-2.12c-.09-.32-.3-.48-.62-.48h-4.38c-.32,0-.53.16-.62.48l-.48,2.12c-.25,1.07-.91,1.61-2,1.61h-2.46Zm6.69-8.5h2.12c.41,0,.57-.21.48-.62l-.82-3.56c-.15-.68-.25-1.24-.28-1.69-.06-.36-.2-.54-.42-.54h-.03c-.25,0-.39.18-.42.54-.13.81-.23,1.38-.28,1.69l-.82,3.56c-.09.41.07.62.48.62Z"/>
      <path class="cls-3" d="m343.16,132.71c-2.41,0-4.59-.06-6.55-.17-1.19-.06-1.78-.69-1.78-1.89v-15.93c0-1.19.47-1.81,1.41-1.87,2.41-.13,4.72-.2,6.92-.2,2.32,0,4.11.29,5.38.86,1.27.58,2.21,1.58,2.81,3.02.6,1.44.9,3.49.9,6.14s-.3,4.7-.9,6.14c-.6,1.44-1.54,2.45-2.81,3.02-1.27.57-3.07.86-5.38.86Zm0-4.43c1.05,0,1.76-.37,2.1-1.12.35-.74.52-2.24.52-4.48s-.17-3.73-.52-4.48-1.05-1.12-2.1-1.12h-1.64c-.38,0-.57.19-.57.57v10.03c0,.36.19.56.57.59h1.64Z"/>
      <path class="cls-3" d="m363.13,132.83c-2.3,0-4.08-.29-5.35-.86-1.27-.57-2.21-1.59-2.81-3.05s-.9-3.54-.9-6.23.3-4.77.9-6.23c.6-1.46,1.54-2.48,2.81-3.05,1.27-.57,3.06-.86,5.35-.86s4.11.29,5.38.86,2.21,1.59,2.81,3.05c.6,1.46.9,3.54.9,6.23s-.3,4.77-.9,6.23-1.54,2.48-2.81,3.05-3.06.86-5.38.86Zm-2.1-5.66c.35.74,1.05,1.12,2.1,1.12s1.76-.37,2.1-1.12c.35-.74.52-2.24.52-4.48s-.17-3.73-.52-4.48c-.35-.74-1.05-1.12-2.1-1.12s-1.76.37-2.1,1.12c-.35.74-.52,2.24-.52,4.48s.17,3.73.52,4.48Z"/>
      <path class="cls-3" d="m383.95,132.43h-7.6c-1.17-.11-1.75-.76-1.75-1.95v-15.59c0-.38.08-.72.23-1.02.15-.3.37-.53.66-.69.29-.16.63-.24,1-.24h6.53c1.41-.02,2.56.04,3.45.17.88.13,1.63.38,2.25.73.61.36,1.04.85,1.29,1.48.24.63.37,1.46.37,2.47,0,1.32-.24,2.32-.71,3.01-.47.69-1.24,1.13-2.32,1.31-.19.04-.28.1-.27.2,0,.09.11.16.3.2,1.3.21,2.23.73,2.8,1.55.57.83.85,2,.85,3.5,0,1-.13,1.82-.4,2.46-.26.64-.7,1.13-1.31,1.48-.61.35-1.33.59-2.16.72-.83.13-1.89.2-3.19.2Zm-2.8-11.89h1.61c.71,0,1.19-.12,1.41-.37.23-.24.34-.74.34-1.5,0-.66-.12-1.09-.35-1.29-.24-.2-.72-.3-1.45-.3h-1.55c-.38,0-.57.19-.57.57v2.32c0,.38.19.56.57.56Zm1.69,7.74c.87,0,1.43-.11,1.68-.34.25-.23.38-.76.38-1.61,0-.9-.13-1.5-.4-1.78-.26-.28-.83-.42-1.69-.42h-1.67c-.38,0-.57.19-.57.56v3.02c0,.38.19.57.57.57h1.69Z"/>
      <path class="cls-3" d="m395.08,132.43c-1.22,0-1.84-.61-1.84-1.84v-15.9c0-1.17.58-1.8,1.75-1.89,1.51-.09,3.68-.14,6.52-.14s5.04.43,6.31,1.3c1.27.87,1.91,2.41,1.91,4.63,0,2.47-1.15,3.97-3.45,4.52-.11.02-.2.06-.25.11-.06.06-.06.11-.01.17s.13.09.24.11c1.49.4,2.39,1.38,2.71,2.94l1.02,3.95c.15.64.08,1.14-.2,1.5-.28.36-.75.54-1.41.54h-2.63c-1.11,0-1.79-.54-2.03-1.61l-.9-4.18c-.11-.53-.29-.88-.52-1.06-.24-.18-.62-.27-1.14-.27h-1.33c-.38,0-.57.19-.57.56v4.72c0,1.22-.61,1.84-1.84,1.84h-2.34Zm4.75-11.44h1.55c.88,0,1.47-.13,1.77-.4.29-.26.44-.8.44-1.61s-.15-1.35-.44-1.61c-.29-.26-.88-.4-1.77-.4h-1.55c-.38,0-.57.19-.57.56v2.88c0,.38.19.56.57.56Z"/>
      <path class="cls-3" d="m412.76,132.43c-.66,0-1.13-.18-1.41-.55-.28-.37-.33-.87-.14-1.51l4.21-14.91c.47-1.68,1.57-2.51,3.3-2.51h3.59c1.73,0,2.83.84,3.3,2.51l4.21,14.91c.19.64.14,1.14-.14,1.51-.28.37-.75.55-1.41.55h-2.46c-1.07,0-1.74-.54-2.01-1.61l-.48-2.12c-.09-.32-.3-.48-.62-.48h-4.38c-.32,0-.53.16-.62.48l-.48,2.12c-.25,1.07-.91,1.61-2,1.61h-2.46Zm6.69-8.5h2.12c.41,0,.57-.21.48-.62l-.82-3.56c-.15-.68-.25-1.24-.28-1.69-.06-.36-.2-.54-.42-.54h-.03c-.25,0-.39.18-.42.54-.13.81-.23,1.38-.28,1.69l-.82,3.56c-.09.41.07.62.48.62Z"/>
    </g>
    <g>
      <rect class="cls-1" x="428.73" y="103.17" width="16.42" height="14.92" rx="2.65" ry="2.65"/>
      <g>
        <path class="cls-3" d="m434.15,113.89c-.89,0-1.52-.18-1.89-.54-.37-.36-.55-.97-.55-1.83v-2.85c0-.31.15-.46.46-.46h.6c.31,0,.46.15.46.46v2.85c0,.47.06.79.18.96.12.17.34.25.66.25s.55-.08.67-.25c.12-.17.17-.49.17-.96v-2.85c0-.31.15-.46.46-.46h.6c.3,0,.45.15.45.46v2.85c0,.87-.17,1.48-.51,1.83-.34.36-.93.54-1.76.54Z"/>
        <path class="cls-3" d="m437.29,113.78c-.17,0-.29-.05-.35-.14-.07-.09-.08-.22-.03-.38l1.3-4.43c.12-.41.4-.62.82-.62h.91c.43,0,.7.21.82.62l1.31,4.43c.02.08.03.15.02.22,0,.06-.02.12-.06.16-.03.04-.08.08-.14.1s-.13.04-.21.04h-.6c-.27,0-.44-.13-.51-.4l-.2-.8c-.02-.09-.08-.13-.17-.13h-1.43c-.09,0-.15.04-.17.13l-.2.8c-.06.26-.23.4-.51.4h-.6Zm1.78-2.42h.82c.11,0,.16-.06.13-.17l-.32-1.26c-.04-.19-.07-.34-.09-.44-.02-.09-.06-.14-.12-.14h0c-.08,0-.12.05-.13.14-.04.22-.07.37-.09.44l-.32,1.26c-.03.11.02.17.13.17Z"/>
      </g>
    </g>
    <g>
      <path class="cls-3" d="m301.01,107.63c-1.36,0-2.32-.33-2.88-.98-.56-.66-.83-1.79-.83-3.4s.28-2.75.83-3.4c.56-.66,1.52-.98,2.88-.98.83,0,1.51.05,2.05.16.43.09.61.36.56.8l-.05.38c-.04.45-.29.67-.74.65-.41-.02-1.02-.02-1.83-.02-.51,0-.85.17-1.03.5-.18.33-.26.97-.26,1.92s.09,1.59.26,1.92c.18.33.52.5,1.03.5.93,0,1.6-.02,2-.05.46-.02.71.19.75.64l.05.37c.04.43-.14.7-.55.8-.58.14-1.33.21-2.25.21Z"/>
      <path class="cls-3" d="m305.55,107.48c-.46,0-.69-.23-.69-.7v-7.08c0-.47.23-.7.69-.7h.92c.46,0,.69.23.69.7v2.21c0,.15.08.22.23.22h2.06c.16,0,.23-.07.23-.22v-2.21c0-.47.23-.7.7-.7h.91c.47,0,.7.23.7.7v7.08c0,.47-.23.7-.7.7h-.91c-.47,0-.7-.23-.7-.7v-2.74c0-.15-.08-.22-.23-.22h-2.06c-.16,0-.23.07-.23.22v2.74c0,.47-.23.7-.69.7h-.92Z"/>
      <path class="cls-3" d="m313.51,107.48c-.25,0-.43-.07-.54-.21-.11-.14-.12-.33-.05-.58l1.98-6.75c.19-.63.61-.95,1.25-.95h1.39c.66,0,1.07.32,1.25.95l1.99,6.75c.03.12.04.23.04.33,0,.1-.04.18-.09.25-.05.07-.12.12-.22.15-.09.04-.2.06-.33.06h-.91c-.41,0-.67-.2-.77-.6l-.31-1.22c-.03-.13-.12-.2-.26-.2h-2.19c-.14,0-.23.07-.26.2l-.31,1.22c-.1.4-.36.6-.77.6h-.91Zm2.72-3.69h1.25c.17,0,.24-.09.2-.26l-.49-1.92c-.07-.29-.11-.51-.14-.68-.02-.14-.09-.21-.18-.21h-.01c-.12,0-.18.07-.2.21-.06.34-.1.56-.14.68l-.49,1.92c-.04.17.02.26.2.26Z"/>
      <path class="cls-3" d="m322.39,107.48c-.47,0-.7-.23-.7-.7v-7.02c0-.52.26-.79.77-.82.63-.04,1.49-.06,2.58-.06.49,0,.91.02,1.27.07.35.05.68.12.97.23.29.11.53.26.71.45.18.19.31.44.41.73.09.29.14.65.14,1.06,0,.59-.12,1.04-.38,1.36s-.62.53-1.11.66c-.07.02-.11.05-.12.09,0,.03.03.06.1.09.28.08.51.21.71.4.19.18.33.47.42.85l.49,1.84c.07.25.04.44-.07.57-.11.14-.29.2-.54.2h-.98c-.42,0-.68-.21-.77-.61l-.46-1.94c-.06-.25-.15-.41-.26-.5-.12-.09-.3-.14-.54-.14h-.86c-.15,0-.22.08-.22.23v2.26c0,.47-.23.7-.7.7h-.87Zm1.79-4.88h.92c.43,0,.73-.07.88-.21.15-.14.23-.41.23-.81,0-.21-.02-.38-.05-.51-.03-.13-.09-.23-.18-.31-.09-.08-.21-.13-.35-.16-.14-.03-.33-.04-.57-.04-.09,0-.23,0-.41,0-.18,0-.32,0-.41,0-.18,0-.27.09-.27.26v1.55c0,.15.07.22.22.22Z"/>
      <path class="cls-3" d="m330.55,107.48c-.46,0-.69-.23-.69-.7v-7.08c0-.47.23-.7.69-.7h.9c.47,0,.7.23.7.7v7.08c0,.47-.23.7-.7.7h-.9Z"/>
      <path class="cls-3" d="m336.2,107.48c-.47,0-.7-.23-.7-.7v-5.78c0-.15-.07-.22-.22-.22h-1.52c-.46,0-.69-.23-.69-.7v-.38c0-.47.23-.7.69-.7h5.81c.46,0,.69.23.69.7v.38c0,.47-.23.7-.69.7h-1.52c-.16,0-.23.07-.23.22v5.78c0,.47-.23.7-.69.7h-.92Z"/>
      <path class="cls-3" d="m343.87,107.48c-.47,0-.7-.23-.7-.7v-1.6c0-.27-.06-.53-.17-.77l-2.24-4.58c-.12-.25-.12-.44-.03-.6.09-.15.28-.23.55-.23h.88c.39,0,.66.18.8.54l1.01,2.32c.1.23.18.54.25.95,0,.04.01.07.02.09,0,.02,0,.04.02.06,0,.02.02.04.03.04s.03.01.06.01c.04,0,.07-.07.1-.2.07-.38.15-.7.25-.95l1-2.32c.15-.36.42-.54.81-.54h.87c.27,0,.45.08.55.23.09.15.08.35-.03.6l-2.22,4.57c-.11.25-.17.5-.17.77v1.61c0,.47-.23.7-.7.7h-.91Z"/>
      <path class="cls-3" d="m351.91,107.48c-.47,0-.7-.23-.7-.7v-5.97c0-.54.18-.98.54-1.31.36-.33.83-.5,1.41-.5h3.38c.21,0,.38.07.49.22.11.15.16.33.14.55v.31c-.04.45-.29.68-.74.68h-2.32c-.39,0-.59.18-.59.53v.97c0,.15.08.22.23.22h2.2c.47,0,.7.23.7.7v.2c0,.46-.23.69-.7.69h-2.2c-.16,0-.23.08-.23.23v2.48c0,.47-.23.7-.7.7h-.91Z"/>
      <path class="cls-3" d="m361.79,107.65c-1.36,0-2.32-.27-2.88-.82-.56-.54-.84-1.48-.84-2.79v-4.34c0-.47.23-.7.7-.7h.91c.47,0,.7.23.7.7v4.34c0,.72.09,1.21.27,1.46.18.25.52.38,1.01.38s.84-.13,1.01-.38c.18-.25.26-.74.26-1.46v-4.34c0-.47.23-.7.7-.7h.92c.46,0,.69.23.69.7v4.34c0,1.32-.26,2.25-.78,2.79-.52.54-1.42.82-2.69.82Z"/>
      <path class="cls-3" d="m367.37,107.48c-.47,0-.7-.23-.7-.7v-6.83c0-.3.08-.54.25-.7.16-.16.4-.25.7-.25h.69c.5,0,.88.22,1.13.65l1.97,3.54c.15.25.29.53.42.84.04.09.09.13.16.13.07,0,.1-.07.09-.2-.02-.28-.02-.56-.02-.84v-3.43c0-.47.23-.7.7-.7h.75c.46,0,.69.23.69.7v6.83c0,.3-.08.54-.24.7-.16.16-.39.25-.71.25h-.69c-.5,0-.88-.22-1.13-.65l-2.03-3.64c-.12-.2-.24-.46-.36-.77-.03-.1-.08-.15-.15-.15-.06,0-.09.06-.09.17.02.28.02.56.02.85v3.49c0,.47-.23.7-.69.7h-.76Z"/>
      <path class="cls-3" d="m379.13,107.6c-.96,0-1.85-.02-2.68-.07-.53-.02-.8-.31-.8-.86v-6.86c0-.54.21-.82.64-.85.98-.06,1.93-.09,2.84-.09.72,0,1.32.07,1.78.2.47.13.86.37,1.17.71.31.34.53.78.66,1.33.13.55.19,1.26.19,2.12s-.06,1.57-.19,2.12c-.13.55-.35,1-.66,1.33s-.7.57-1.17.71c-.47.14-1.06.2-1.78.2Zm0-1.73c.53,0,.89-.18,1.08-.54s.28-1.05.28-2.09-.09-1.74-.28-2.1-.55-.54-1.08-.54c-.11,0-.26,0-.46,0-.2,0-.35,0-.45,0-.17,0-.26.09-.26.26v4.73c0,.16.08.25.25.27h.92Z"/>
    </g>
  </g>
  <g>
    <g>
      <path class="cls-3" d="m12.46,132.43c-1.22,0-1.84-.61-1.84-1.84v-13.33c0-1.32.42-2.39,1.27-3.21.85-.82,1.94-1.23,3.28-1.23,3.54,0,6.1.07,7.68.2,1.21.09,1.76.75,1.67,1.98l-.06.73c-.09,1.19-.73,1.78-1.89,1.78h-4.63c-.36,0-.65.09-.86.28-.22.19-.33.43-.33.74v12.06c0,1.22-.61,1.84-1.84,1.84h-2.46Z"/>
      <path class="cls-3" d="m34.55,132.83c-2.3,0-4.08-.29-5.35-.86-1.27-.57-2.21-1.59-2.81-3.05s-.9-3.54-.9-6.23.3-4.77.9-6.23c.6-1.46,1.54-2.48,2.81-3.05,1.27-.57,3.06-.86,5.35-.86s4.11.29,5.38.86,2.21,1.59,2.81,3.05c.6,1.46.9,3.54.9,6.23s-.3,4.77-.9,6.23-1.54,2.48-2.81,3.05-3.06.86-5.38.86Zm-2.1-5.66c.35.74,1.05,1.12,2.1,1.12s1.76-.37,2.1-1.12c.35-.74.52-2.24.52-4.48s-.17-3.73-.52-4.48c-.35-.74-1.05-1.12-2.1-1.12s-1.76.37-2.1,1.12c-.35.74-.52,2.24-.52,4.48s.17,3.73.52,4.48Z"/>
      <path class="cls-3" d="m47.85,132.43c-1.22,0-1.84-.61-1.84-1.84v-15.9c0-1.19.6-1.81,1.81-1.86,1.47-.11,3.62-.17,6.44-.17,3.11,0,5.23.46,6.37,1.38,1.14.92,1.71,2.67,1.71,5.25s-.53,4.27-1.58,5.2-2.94,1.38-5.65,1.38c-.88,0-1.68-.04-2.37-.11-.39-.04-.59.14-.59.54v4.29c0,1.22-.61,1.84-1.84,1.84h-2.46Zm4.86-10.88h1.41c.83,0,1.38-.15,1.67-.45.28-.3.42-.9.42-1.81s-.14-1.54-.42-1.85c-.28-.31-.84-.47-1.67-.47h-1.41c-.38,0-.57.19-.57.56v3.45c0,.38.19.57.57.57Z"/>
      <path class="cls-3" d="m63.84,132.43c-.66,0-1.13-.18-1.41-.55-.28-.37-.33-.87-.14-1.51l4.21-14.91c.47-1.68,1.57-2.51,3.3-2.51h3.59c1.73,0,2.83.84,3.3,2.51l4.21,14.91c.19.64.14,1.14-.14,1.51-.28.37-.75.55-1.41.55h-2.46c-1.07,0-1.74-.54-2.01-1.61l-.48-2.12c-.09-.32-.3-.48-.62-.48h-4.38c-.32,0-.53.16-.62.48l-.48,2.12c-.25,1.07-.91,1.61-2,1.61h-2.46Zm6.69-8.5h2.12c.41,0,.57-.21.48-.62l-.82-3.56c-.15-.68-.25-1.24-.28-1.69-.06-.36-.2-.54-.42-.54h-.03c-.25,0-.39.18-.42.54-.13.81-.23,1.38-.28,1.69l-.82,3.56c-.09.41.07.62.48.62Z"/>
      <path class="cls-3" d="m89.32,136.7c-1.22,0-1.84-.61-1.84-1.84v-4.6c0-.47.12-.87.37-1.19s.56-.52.93-.59l.14-.03c.26-.04.46-.19.59-.45.81-1.88,1.37-3.55,1.67-4.99.3-1.44.57-3.36.82-5.75.13-1.26.64-2.3,1.51-3.11s1.98-1.21,3.32-1.21h6.47c.96,0,1.69.25,2.2.76.51.51.76,1.24.76,2.2v11.95c0,.38.19.57.56.57h.79c.88,0,1.33.61,1.33,1.84v4.6c0,1.22-.61,1.84-1.84,1.84h-.85c-1.17,0-1.81-.58-1.92-1.75l-.2-1.98c-.06-.36-.25-.54-.59-.54h-10.68c-.34,0-.54.18-.59.54l-.2,1.98c-.11,1.17-.75,1.75-1.92,1.75h-.85Zm6.81-8.28h3.45c.38,0,.57-.19.57-.57v-10.34c0-.38-.19-.56-.57-.56h-.59c-.79,0-1.22.45-1.3,1.36-.45,4.26-1.11,7.41-1.98,9.46-.19.43-.05.65.42.65Z"/>
      <path class="cls-3" d="m119.09,132.83c-2.3,0-4.08-.29-5.35-.86-1.27-.57-2.21-1.59-2.81-3.05s-.9-3.54-.9-6.23.3-4.77.9-6.23c.6-1.46,1.54-2.48,2.81-3.05,1.27-.57,3.06-.86,5.35-.86s4.11.29,5.38.86,2.21,1.59,2.81,3.05c.6,1.46.9,3.54.9,6.23s-.3,4.77-.9,6.23-1.54,2.48-2.81,3.05-3.06.86-5.38.86Zm-2.1-5.66c.35.74,1.05,1.12,2.1,1.12s1.76-.37,2.1-1.12c.35-.74.52-2.24.52-4.48s-.17-3.73-.52-4.48c-.35-.74-1.05-1.12-2.1-1.12s-1.76.37-2.1,1.12c-.35.74-.52,2.24-.52,4.48s.17,3.73.52,4.48Z"/>
      <path class="cls-3" d="m139.57,132.66c-2.86,0-5.24-.04-7.12-.11-1.19-.06-1.78-.69-1.78-1.89v-15.93c0-1.21.59-1.84,1.78-1.89,1.68-.08,3.5-.11,5.48-.11,1.73,0,3.61.05,5.62.14.6.02,1.05.2,1.36.54.3.34.41.81.34,1.41l-.08.76c-.11,1.17-.75,1.75-1.92,1.75h-5.88c-.38,0-.56.19-.56.56v2.03c0,.38.19.56.56.56h1.38c3.05,0,5.16.42,6.33,1.27,1.17.85,1.75,2.43,1.75,4.75s-.56,3.92-1.69,4.82c-1.13.9-2.99,1.34-5.57,1.34Zm-.82-4.24c.81,0,1.34-.14,1.58-.41.25-.27.37-.84.37-1.71s-.12-1.44-.37-1.71c-.24-.27-.77-.41-1.58-.41h-1.38c-.38,0-.56.19-.56.56v3.11c0,.38.19.57.56.57h1.38Z"/>
      <path class="cls-3" d="m150.7,132.43c-1.22,0-1.84-.61-1.84-1.84v-15.9c0-1.19.6-1.81,1.81-1.86,1.47-.11,3.62-.17,6.44-.17,3.11,0,5.23.46,6.37,1.38,1.14.92,1.71,2.67,1.71,5.25s-.53,4.27-1.58,5.2-2.94,1.38-5.65,1.38c-.88,0-1.68-.04-2.37-.11-.39-.04-.59.14-.59.54v4.29c0,1.22-.61,1.84-1.84,1.84h-2.46Zm4.86-10.88h1.41c.83,0,1.38-.15,1.67-.45.28-.3.42-.9.42-1.81s-.14-1.54-.42-1.85c-.28-.31-.84-.47-1.67-.47h-1.41c-.38,0-.57.19-.57.56v3.45c0,.38.19.57.57.57Z"/>
      <path class="cls-3" d="m166.69,132.43c-.66,0-1.13-.18-1.41-.55-.28-.37-.33-.87-.14-1.51l4.21-14.91c.47-1.68,1.57-2.51,3.3-2.51h3.59c1.73,0,2.83.84,3.3,2.51l4.21,14.91c.19.64.14,1.14-.14,1.51-.28.37-.75.55-1.41.55h-2.46c-1.07,0-1.74-.54-2.01-1.61l-.48-2.12c-.09-.32-.3-.48-.62-.48h-4.38c-.32,0-.53.16-.62.48l-.48,2.12c-.25,1.07-.91,1.61-2,1.61h-2.46Zm6.69-8.5h2.12c.41,0,.57-.21.48-.62l-.82-3.56c-.15-.68-.25-1.24-.28-1.69-.06-.36-.2-.54-.42-.54h-.03c-.25,0-.39.18-.42.54-.13.81-.23,1.38-.28,1.69l-.82,3.56c-.09.41.07.62.48.62Z"/>
    </g>
    <g>
      <rect class="cls-1" x="182.73" y="103.17" width="16.42" height="14.92" rx="2.65" ry="2.65"/>
      <g>
        <path class="cls-3" d="m188.15,113.89c-.89,0-1.52-.18-1.89-.54-.37-.36-.55-.97-.55-1.83v-2.85c0-.31.15-.46.46-.46h.6c.31,0,.46.15.46.46v2.85c0,.47.06.79.18.96.12.17.34.25.66.25s.55-.08.67-.25c.12-.17.17-.49.17-.96v-2.85c0-.31.15-.46.46-.46h.6c.3,0,.45.15.45.46v2.85c0,.87-.17,1.48-.51,1.83-.34.36-.93.54-1.76.54Z"/>
        <path class="cls-3" d="m191.3,113.78c-.17,0-.29-.05-.35-.14-.07-.09-.08-.22-.03-.38l1.3-4.43c.12-.41.4-.62.82-.62h.91c.43,0,.7.21.82.62l1.31,4.43c.02.08.03.15.02.22,0,.06-.02.12-.06.16-.03.04-.08.08-.14.1s-.13.04-.21.04h-.6c-.27,0-.44-.13-.51-.4l-.2-.8c-.02-.09-.08-.13-.17-.13h-1.43c-.09,0-.15.04-.17.13l-.2.8c-.06.26-.23.4-.51.4h-.6Zm1.78-2.42h.82c.11,0,.16-.06.13-.17l-.32-1.26c-.04-.19-.07-.34-.09-.44-.02-.09-.06-.14-.12-.14h0c-.08,0-.12.05-.13.14-.04.22-.07.37-.09.44l-.32,1.26c-.03.11.02.17.13.17Z"/>
      </g>
    </g>
    <g>
      <path class="cls-3" d="m37.07,107.58c-1.1,0-2.02-.02-2.78-.05-.24,0-.42-.09-.56-.23-.13-.15-.2-.34-.2-.58v-6.94c0-.25.07-.44.2-.58.14-.14.33-.22.57-.24.75-.03,1.51-.05,2.26-.05s1.52.02,2.37.06c.22,0,.39.08.51.22.12.13.16.31.13.53l-.02.32c-.05.44-.29.66-.73.66h-2.73c-.17,0-.26.09-.26.26v1.17c0,.16.08.23.23.23h.81c.64,0,1.17.04,1.58.12.41.08.76.23,1.03.43s.46.47.57.79c.11.32.17.74.17,1.25s-.06.97-.18,1.31c-.12.34-.32.61-.6.8-.27.19-.6.33-.97.4-.37.07-.84.11-1.41.11Zm-.18-1.66c.43,0,.71-.07.84-.2.13-.13.2-.41.2-.85s-.07-.71-.2-.85-.41-.21-.84-.21h-.81c-.16,0-.23.07-.23.22v1.62c0,.17.09.26.26.26h.79Z"/>
      <path class="cls-3" d="m41.35,107.59c-.42,0-.65-.24-.69-.69l-.04-.5c-.02-.21,0-.37.1-.48.09-.12.25-.22.46-.32.27-.12.46-.34.58-.66.25-.69.44-2,.58-3.94.09-1.33.8-1.99,2.13-1.99h2.7c.38,0,.66.1.86.29s.29.48.29.86v6.62c0,.47-.23.7-.7.7h-.91c-.47,0-.7-.23-.7-.7v-5.99c0-.15-.08-.22-.23-.22h-.54c-.43,0-.67.21-.7.63-.17,2.14-.39,3.59-.65,4.36-.23.72-.56,1.24-.98,1.56-.43.32-.95.48-1.56.47Z"/>
      <path class="cls-3" d="m49.88,107.48c-.25,0-.43-.07-.54-.21-.11-.14-.12-.33-.05-.58l1.98-6.75c.19-.63.61-.95,1.25-.95h1.39c.66,0,1.07.32,1.25.95l1.99,6.75c.03.12.04.23.04.33,0,.1-.04.18-.09.25-.05.07-.12.12-.22.15-.09.04-.2.06-.33.06h-.91c-.41,0-.67-.2-.77-.6l-.31-1.22c-.03-.13-.12-.2-.26-.2h-2.19c-.14,0-.23.07-.26.2l-.31,1.22c-.1.4-.36.6-.77.6h-.91Zm2.72-3.69h1.25c.17,0,.24-.09.2-.26l-.49-1.92c-.07-.29-.11-.51-.14-.68-.02-.14-.09-.21-.18-.21h-.01c-.12,0-.18.07-.2.21-.06.34-.1.56-.14.68l-.49,1.92c-.04.17.02.26.2.26Z"/>
      <path class="cls-3" d="m58.77,107.48c-.22,0-.39-.06-.52-.18-.12-.12-.18-.29-.18-.52v-5.95c0-.36.08-.68.24-.97s.38-.51.67-.66c.29-.16.61-.23.98-.23,1.51,0,2.6.03,3.27.07.22.02.39.09.5.23.11.13.16.31.14.52l-.02.29c-.02.21-.09.38-.21.5-.12.12-.29.18-.5.18h-2.17c-.39,0-.58.18-.58.55v5.47c0,.22-.06.39-.18.52-.12.12-.29.18-.52.18h-.91Z"/>
      <path class="cls-3" d="m68.21,107.65c-.72,0-1.31-.07-1.78-.2-.47-.14-.86-.37-1.17-.71s-.53-.79-.66-1.35c-.13-.56-.19-1.28-.19-2.14s.06-1.58.19-2.14c.13-.56.35-1.01.66-1.35.31-.34.7-.58,1.17-.71.47-.14,1.06-.2,1.78-.2s1.32.07,1.78.2c.47.13.86.37,1.17.71.31.34.53.79.66,1.35.13.56.2,1.28.2,2.14,0,.7-.04,1.29-.13,1.78-.09.49-.22.91-.4,1.25-.18.34-.42.62-.73.82-.31.2-.66.34-1.07.43-.41.09-.9.13-1.48.13Zm0-1.77c.28,0,.5-.04.67-.12.17-.08.31-.22.42-.42.11-.2.19-.47.23-.8.04-.33.06-.76.06-1.3,0-1.04-.09-1.74-.28-2.1s-.55-.54-1.09-.54-.91.18-1.09.54-.28,1.06-.28,2.1.09,1.74.28,2.1c.19.36.55.54,1.09.54Z"/>
      <path class="cls-3" d="m73.04,109.33c-.45,0-.68-.23-.68-.68v-2.09c0-.17.04-.32.14-.43.09-.11.21-.18.36-.21h.16c.11-.03.19-.09.25-.2.34-.81.59-1.56.73-2.26.14-.7.26-1.58.35-2.64.02-.21.06-.41.14-.6.07-.19.17-.36.29-.5.12-.15.26-.28.42-.39.16-.11.35-.19.55-.25.2-.06.42-.09.66-.09h2.67c.37,0,.65.1.85.29.2.2.3.48.3.86v5.53c0,.15.07.22.22.22h.41c.34,0,.5.22.5.66v2.09c0,.45-.23.68-.68.68h-.33c-.43,0-.67-.22-.7-.65l-.09-.98c-.02-.15-.11-.22-.25-.22h-4.9c-.14,0-.22.07-.23.22l-.09.98c-.04.43-.28.65-.71.65h-.33Zm2.72-3.43h1.92c.16,0,.23-.07.23-.22v-4.89c0-.15-.08-.22-.23-.22h-.54c-.21,0-.36.05-.46.15s-.16.27-.18.5c-.1,1.05-.22,1.91-.36,2.59-.14.68-.33,1.29-.56,1.84-.07.17-.01.26.18.26Z"/>
      <path class="cls-3" d="m82.99,107.48c-.46,0-.69-.23-.69-.7v-7.08c0-.47.23-.7.69-.7h.9c.47,0,.7.23.7.7v7.08c0,.47-.23.7-.7.7h-.9Z"/>
      <path class="cls-3" d="m86.82,107.48c-.46,0-.69-.23-.69-.7v-7.08c0-.47.23-.7.69-.7h.81c.46,0,.69.23.69.7v3.61c0,.23,0,.44-.02.64,0,.11.01.16.06.17.05,0,.09-.03.13-.12.04-.08.1-.19.17-.34.07-.14.12-.24.13-.28l2.16-3.9c.17-.33.45-.49.82-.49h.97c.47,0,.7.23.7.7v7.08c0,.47-.23.7-.7.7h-.8c-.47,0-.7-.23-.7-.7v-3.72c0-.28,0-.47.01-.58,0-.07,0-.11-.03-.14-.02-.03-.05-.04-.08-.02-.03.02-.06.05-.09.11-.05.14-.14.34-.28.6l-2.16,3.96c-.17.33-.45.49-.82.49h-.98Zm4.43-9.46c-.37.26-.82.39-1.37.39s-1.01-.13-1.38-.39c-.37-.26-.61-.59-.71-.99-.02-.1-.03-.19,0-.27s.06-.15.12-.21c.06-.06.13-.1.22-.13.09-.03.19-.04.29-.04h.15c.1,0,.18,0,.24.03s.12.06.17.13c.05.07.09.12.12.16s.07.13.12.26c.09.26.31.39.66.39s.56-.13.65-.39c.06-.13.1-.22.12-.26s.06-.09.12-.16c.05-.07.11-.11.17-.13s.14-.03.24-.03h.14c.23,0,.41.06.53.18.13.12.16.28.1.47-.11.4-.34.73-.71.99Z"/>
      <path class="cls-3" d="m95.68,107.48c-.46,0-.69-.23-.69-.7v-7.08c0-.47.23-.7.69-.7h.92c.46,0,.69.23.69.7v2.21c0,.15.08.22.23.22h2.06c.16,0,.23-.07.23-.22v-2.21c0-.47.23-.7.7-.7h.91c.47,0,.7.23.7.7v7.08c0,.47-.23.7-.7.7h-.91c-.47,0-.7-.23-.7-.7v-2.74c0-.15-.08-.22-.23-.22h-2.06c-.16,0-.23.07-.23.22v2.74c0,.47-.23.7-.69.7h-.92Z"/>
      <path class="cls-3" d="m104.34,107.48c-.46,0-.69-.23-.69-.7v-7.08c0-.47.23-.7.69-.7h.81c.46,0,.69.23.69.7v3.61c0,.23,0,.44-.02.64,0,.11.01.16.06.17.05,0,.09-.03.13-.12.04-.08.1-.19.17-.34.07-.14.12-.24.13-.28l2.16-3.9c.17-.33.45-.49.82-.49h.97c.47,0,.7.23.7.7v7.08c0,.47-.23.7-.7.7h-.8c-.47,0-.7-.23-.7-.7v-3.72c0-.28,0-.47.01-.58,0-.07,0-.11-.03-.14-.02-.03-.05-.04-.08-.02-.03.02-.06.05-.09.11-.05.14-.14.34-.27.6l-2.17,3.96c-.17.33-.45.49-.82.49h-.98Z"/>
      <path class="cls-3" d="m113.24,107.48c-.46,0-.69-.23-.69-.7v-7.08c0-.47.23-.7.69-.7h.81c.46,0,.69.23.69.7v3.61c0,.23,0,.44-.02.64,0,.11.01.16.06.17.05,0,.09-.03.13-.12.04-.08.1-.19.17-.34.07-.14.12-.24.13-.28l2.16-3.9c.17-.33.45-.49.82-.49h.97c.47,0,.7.23.7.7v7.08c0,.47-.23.7-.7.7h-.8c-.47,0-.7-.23-.7-.7v-3.72c0-.28,0-.47.01-.58,0-.07,0-.11-.03-.14-.02-.03-.05-.04-.08-.02-.03.02-.06.05-.09.11-.05.14-.14.34-.28.6l-2.16,3.96c-.17.33-.45.49-.82.49h-.98Zm4.43-9.46c-.37.26-.82.39-1.37.39s-1.01-.13-1.38-.39c-.37-.26-.61-.59-.71-.99-.02-.1-.03-.19,0-.27s.06-.15.12-.21c.06-.06.13-.1.22-.13.09-.03.19-.04.29-.04h.15c.1,0,.18,0,.24.03s.12.06.17.13c.05.07.09.12.12.16s.07.13.12.26c.09.26.31.39.66.39s.56-.13.65-.39c.06-.13.1-.22.12-.26s.06-.09.12-.16c.05-.07.11-.11.17-.13s.14-.03.24-.03h.14c.23,0,.41.06.53.18.13.12.16.28.1.47-.11.4-.34.73-.71.99Z"/>
      <path class="cls-3" d="m128.12,107.71c-.46,0-.69-.23-.7-.68v-.18c0-.13-.07-.2-.21-.22-1.34-.1-2.29-.41-2.83-.93-.54-.52-.82-1.38-.82-2.58s.27-2.11.82-2.65,1.49-.86,2.83-.96c.14-.02.21-.09.21-.22v-.18c0-.45.24-.68.7-.68h.91c.46,0,.69.22.7.66v.2c0,.13.08.21.23.22,1.33.1,2.26.42,2.8.96.54.54.81,1.43.82,2.65,0,1.2-.29,2.05-.83,2.58-.54.52-1.48.83-2.82.93-.14.02-.21.09-.21.22v.18c0,.45-.24.68-.7.68h-.91Zm-.82-2.75c.16.03.23-.03.23-.18v-3.4c0-.16-.07-.22-.22-.18-.57.07-.94.25-1.14.52-.19.27-.29.75-.29,1.42,0,.63.1,1.08.29,1.34.19.26.57.43,1.12.49Zm2.56,0c.56-.07.93-.23,1.12-.49.19-.26.29-.71.29-1.34,0-.45-.04-.8-.12-1.06s-.22-.45-.42-.6c-.21-.14-.5-.24-.87-.29-.16-.02-.23.04-.23.2v3.39c0,.07.02.12.06.15s.1.05.17.03Z"/>
      <path class="cls-3" d="m138.15,107.65c-.72,0-1.31-.07-1.78-.2-.47-.14-.86-.37-1.17-.71s-.53-.79-.66-1.35c-.13-.56-.19-1.28-.19-2.14s.06-1.58.19-2.14c.13-.56.35-1.01.66-1.35.31-.34.7-.58,1.17-.71.47-.14,1.06-.2,1.78-.2s1.32.07,1.78.2c.47.13.86.37,1.17.71.31.34.53.79.66,1.35.13.56.2,1.28.2,2.14,0,.7-.04,1.29-.13,1.78-.09.49-.22.91-.4,1.25-.18.34-.42.62-.73.82-.31.2-.66.34-1.07.43-.41.09-.9.13-1.48.13Zm0-1.77c.28,0,.5-.04.67-.12.17-.08.31-.22.42-.42.11-.2.19-.47.23-.8.04-.33.06-.76.06-1.3,0-1.04-.09-1.74-.28-2.1s-.55-.54-1.09-.54-.91.18-1.09.54-.28,1.06-.28,2.1.09,1.74.28,2.1c.19.36.55.54,1.09.54Z"/>
      <path class="cls-3" d="m143.87,107.48c-.46,0-.69-.23-.69-.7v-7.08c0-.47.23-.7.69-.7h.92c.46,0,.69.23.69.7v2.21c0,.15.08.22.23.22h2.06c.16,0,.23-.07.23-.22v-2.21c0-.47.23-.7.7-.7h.91c.47,0,.7.23.7.7v7.08c0,.47-.23.7-.7.7h-.91c-.47,0-.7-.23-.7-.7v-2.74c0-.15-.08-.22-.23-.22h-2.06c-.16,0-.23.07-.23.22v2.74c0,.47-.23.7-.69.7h-.92Z"/>
      <path class="cls-3" d="m151.91,109.33c-.45,0-.68-.23-.68-.68v-2.09c0-.17.04-.32.14-.43.09-.11.21-.18.36-.21h.16c.11-.03.19-.09.25-.2.34-.81.59-1.56.73-2.26.14-.7.26-1.58.35-2.64.02-.21.06-.41.14-.6.07-.19.17-.36.29-.5.12-.15.26-.28.42-.39.16-.11.35-.19.55-.25.2-.06.42-.09.66-.09h2.67c.37,0,.65.1.85.29.2.2.3.48.3.86v5.53c0,.15.07.22.22.22h.41c.34,0,.5.22.5.66v2.09c0,.45-.23.68-.68.68h-.33c-.43,0-.67-.22-.7-.65l-.09-.98c-.02-.15-.11-.22-.25-.22h-4.9c-.14,0-.22.07-.23.22l-.09.98c-.04.43-.28.65-.71.65h-.33Zm2.72-3.43h1.92c.16,0,.23-.07.23-.22v-4.89c0-.15-.08-.22-.23-.22h-.54c-.21,0-.36.05-.46.15s-.16.27-.18.5c-.1,1.05-.22,1.91-.36,2.59-.14.68-.33,1.29-.56,1.84-.07.17-.01.26.18.26Z"/>
    </g>
  </g>
  <g>
    <g>
      <path class="cls-4" d="m295.77,55.74c-2.07,14.02-10.89,23.05-21.72,33.79-15.97,15.82-30.2,29.26-42.08,40.2-1.09,1.01-2.78.99-3.86-.03-10.5-9.97-24.49-23.45-41.28-40.17-10.86-10.82-19.65-19.81-21.72-33.79-1.49-10.07,1.25-17.74,1.93-19.55,5.02-13.28,18.15-24.66,34.27-25.82,15.28-1.1,26.13,7.48,28.72,9.65,2.61-2.16,13.83-10.96,29.54-9.65,15.87,1.32,29.18,12.35,34.27,25.82.68,1.81,3.42,9.48,1.93,19.55Z"/>
      <path class="cls-2" d="m256.4,15.5c.9,0,1.82.04,2.73.11,6.6.55,12.96,3.06,18.39,7.27,2.59,2.01,4.89,4.34,6.84,6.93,1.93,2.58,3.47,5.35,4.56,8.23.9,2.38,2.85,8.79,1.65,16.92-.83,5.6-2.94,10.63-6.65,15.84-3.46,4.86-8,9.46-13.57,14.98-13.25,13.12-26.78,26.08-40.26,38.53-12.91-12.29-26.2-25.24-39.54-38.52-5.79-5.76-10.15-10.21-13.59-15.03-3.7-5.19-5.81-10.21-6.64-15.79-1.2-8.15.75-14.55,1.65-16.92,2.18-5.78,6.2-11.17,11.3-15.18,5.44-4.27,11.82-6.78,18.43-7.26.77-.06,1.55-.08,2.32-.08,11.26,0,19.58,5.96,22.64,8.52.98.82,2.18,1.23,3.38,1.23s2.38-.4,3.36-1.21c3.11-2.58,11.59-8.57,23.02-8.57h0m0-5.26c-14.04,0-23.94,7.77-26.37,9.78-2.44-2.04-12.17-9.75-26.02-9.75-.88,0-1.78.03-2.7.1-16.12,1.16-29.25,12.54-34.27,25.82-.68,1.81-3.42,9.48-1.93,19.55,2.07,13.98,10.86,22.97,21.72,33.79,16.8,16.72,30.79,30.2,41.28,40.17.55.52,1.25.78,1.95.78s1.37-.25,1.91-.75c11.88-10.94,26.11-24.38,42.08-40.2,10.84-10.74,19.65-19.77,21.72-33.79,1.49-10.07-1.25-17.74-1.93-19.55-5.09-13.48-18.41-24.5-34.27-25.82-1.08-.09-2.13-.13-3.17-.13h0Z"/>
    </g>
    <g>
      <path class="cls-1" d="m191.41,89.05c20.35-19.23,40.71-38.45,61.06-57.68,12.31,11.75,24.62,23.49,36.92,35.24-6.25,8.04-13.28,16.41-21.18,24.92-13.05,14.05-26.01,25.84-38.07,35.64-7.12-6.23-14.45-13.04-21.9-20.45-6.01-5.98-11.61-11.89-16.83-17.66Z"/>
      <path class="cls-2" d="m230.14,129.8c-.62,0-1.24-.22-1.73-.65-7.53-6.59-14.94-13.51-22.03-20.57-5.77-5.75-11.46-11.72-16.92-17.76-.96-1.06-.89-2.69.15-3.68l61.06-57.68c1.02-.96,2.61-.96,3.62,0l36.92,35.24c.98.93,1.09,2.45.26,3.52-6.72,8.64-13.89,17.08-21.33,25.09-11.87,12.79-24.77,24.86-38.34,35.89-.48.39-1.07.59-1.66.59Zm-35.05-40.61c4.87,5.32,9.9,10.58,15,15.66,6.48,6.46,13.24,12.8,20.11,18.87,12.75-10.49,24.88-21.92,36.08-33.98,6.8-7.32,13.37-15,19.57-22.87l-33.39-31.86-57.37,54.19Z"/>
    </g>
    <g>
      <path class="cls-1" d="m226.89,55.26c-11.78,11.55-23.56,23.09-35.34,34.64-3.72-3-8.2-7.18-12.57-12.78-4.73-6.06-7.83-11.88-9.86-16.47,10.33-10.16,20.66-20.32,30.99-30.48,8.93,8.37,17.86,16.73,26.79,25.1Z"/>
      <path class="cls-2" d="m191.54,92.53c-.58,0-1.17-.19-1.65-.58-4.82-3.89-9.19-8.33-12.99-13.21-4.08-5.23-7.51-10.96-10.2-17.02-.44-1-.22-2.17.56-2.94l30.99-30.48c1.01-.99,2.61-1.01,3.64-.04l26.79,25.1c.52.49.82,1.17.83,1.89,0,.72-.28,1.41-.79,1.91l-35.34,34.64c-.51.5-1.17.75-1.84.75Zm-19.27-31.3c2.39,5.06,5.34,9.86,8.78,14.27,3.08,3.95,6.55,7.59,10.35,10.86l31.68-31.05-22.94-21.49-27.87,27.42Z"/>
    </g>
  </g>
</svg>